<svg version="1.1" xmlns="http://www.w3.org/2000/svg" xmlns:xlink="http://www.w3.org/1999/xlink" width="512px" height="512px" viewBox="0,0,256,256"><g fill="#f35c27" fill-rule="nonzero" stroke="none" stroke-width="1" stroke-linecap="butt" stroke-linejoin="miter" stroke-miterlimit="10" stroke-dasharray="" stroke-dashoffset="0" font-family="none" font-weight="none" font-size="none" text-anchor="none" style="mix-blend-mode: normal"><g><g><g transform="scale(0.5,0.5)"><path d="M464,256c0,114.87523 -93.12477,208 -208,208c-114.87523,0 -208,-93.12477 -208,-208c0,-114.87523 93.12477,-208 208,-208c114.87523,0 208,93.12477 208,208zM0,256c0,141.3849 114.6151,256 256,256c141.3849,0 256,-114.6151 256,-256c0,-141.3849 -114.6151,-256 -256,-256c-141.3849,0 -256,114.6151 -256,256zM232,120v136c0,8 4,15.5 10.7,20l96,64c11,7.4 25.9,4.4 33.3,-6.7c7.4,-11.1 4.4,-25.9 -6.7,-33.3l-85.3,-56.8v-123.2c0,-13.3 -10.7,-24 -24,-24c-13.3,0 -24,10.7 -24,24z"></path></g></g></g></g></svg>