<svg version="1.1" xmlns="http://www.w3.org/2000/svg" xmlns:xlink="http://www.w3.org/1999/xlink" width="512px" height="512px" viewBox="0,0,256,256"><g fill="#f35c27" fill-rule="nonzero" stroke="none" stroke-width="1" stroke-linecap="butt" stroke-linejoin="miter" stroke-miterlimit="10" stroke-dasharray="" stroke-dashoffset="0" font-family="none" font-weight="none" font-size="none" text-anchor="none" style="mix-blend-mode: normal"><g><g><g transform="scale(0.5,0.5)"><path d="M320,96h-128l-47.4,-71.1c-7.1,-10.7 0.5,-24.9 13.3,-24.9h196.2c12.8,0 20.4,14.2 13.3,24.9zM192,128h128c3.8,2.5 8.1,5.3 13,8.4c56.7,36.3 179,114.5 179,279.6c0,53 -43,96 -96,96h-320c-53,0 -96,-43 -96,-96c0,-165.1 122.3,-243.3 179,-279.6v0v0c4.8,-3.1 9.2,-5.9 13,-8.4zM276,216c0,-11 -9,-20 -20,-20c-11,0 -20,9 -20,20v14c-7.6,1.7 -15.2,4.4 -22.2,8.5c-13.9,8.3 -25.9,22.8 -25.8,43.9c0.1,20.3 12,33.1 24.7,40.7c11,6.6 24.7,10.8 35.6,14l1.7,0.5c12.6,3.8 21.8,6.8 28,10.7c5.1,3.2 5.8,5.4 5.9,8.2c0.1,5 -1.8,8 -5.9,10.5c-5,3.1 -12.9,5 -21.4,4.7c-11.1,-0.4 -21.5,-3.9 -35.1,-8.5c-2.3,-0.8 -4.7,-1.6 -7.2,-2.4c-10.5,-3.5 -21.8,2.2 -25.3,12.6c-3.5,10.4 2.2,21.8 12.6,25.3c1.9,0.6 4,1.3 6.1,2.1v0v0c8.3,2.9 17.9,6.2 28.2,8.4v14.8c0,11 9,20 20,20c11,0 20,-9 20,-20v-13.8c8,-1.7 16,-4.5 23.2,-9c14.3,-8.9 25.1,-24.1 24.8,-45c-0.3,-20.3 -11.7,-33.4 -24.6,-41.6c-11.5,-7.2 -25.9,-11.6 -37.1,-15v0l-0.7,-0.2c-12.8,-3.9 -21.9,-6.7 -28.3,-10.5c-5.2,-3.1 -5.3,-4.9 -5.3,-6.7c0,-3.7 1.4,-6.5 6.2,-9.3c5.4,-3.2 13.6,-5.1 21.5,-5c9.6,0.1 20.2,2.2 31.2,5.2c10.7,2.8 21.6,-3.5 24.5,-14.2c2.9,-10.7 -3.5,-21.6 -14.2,-24.5c-6.5,-1.7 -13.7,-3.4 -21.1,-4.7z"></path></g></g></g></g></svg>