<svg id="Ebene_1" data-name="Ebene 1" xmlns="http://www.w3.org/2000/svg" viewBox="0 0 152.9 47.7"><defs><style>.cls-1{fill:#005fa0;}.cls-2{fill:#e01b26;}</style></defs><title>Remmers_Logo_06-2016_4C</title><g id="remmers"><path class="cls-1" d="M30.16,52a13.71,13.71,0,0,0-2.47-.19,8.36,8.36,0,0,0-5,1.71V68H17V46.57h4.45l1.18,3.15h.15a5.72,5.72,0,0,1,5.55-3.61,9.16,9.16,0,0,1,1.82.19Z" transform="translate(-17.01 -20.75)"/><path class="cls-1" d="M49.35,66.06c-1.67,1.36-3.76,2.39-7.87,2.39-6.76,0-10.22-3.8-10.22-11.21,0-7,3.88-11.09,10.07-11.09,5.47,0,8.63,3.45,8.63,8.7a25.85,25.85,0,0,1-.27,3.84H36.89c.07,3.38,1.59,5.24,5.24,5.24A6.48,6.48,0,0,0,46.84,62ZM37,54.89h7.56v-.57c0-2.51-1.06-3.84-3.38-3.84C38.6,50.48,37.08,52.38,37,54.89Z" transform="translate(-17.01 -20.75)"/><path class="cls-1" d="M75.62,46.07c4.21,0,6.68,2.24,6.68,7.14V68H76.64V54.24c0-2.51-1.3-3.34-2.78-3.34a4.07,4.07,0,0,0-3.61,2.47V68H64.59V54.66c0-2.51-1.1-3.76-3.08-3.76a3.83,3.83,0,0,0-3.3,2.54V68H52.54V46.57h4.64l1,2h.15A7.14,7.14,0,0,1,64,46.07c3.26,0,4.59,1.37,5.35,2.89h.15A7.48,7.48,0,0,1,75.62,46.07Z" transform="translate(-17.01 -20.75)"/><path class="cls-1" d="M108.35,46.07c4.22,0,6.69,2.24,6.69,7.14V68h-5.67V54.24c0-2.51-1.29-3.34-2.78-3.34A4.07,4.07,0,0,0,103,53.37V68H97.32V54.66c0-2.51-1.1-3.76-3.07-3.76a3.83,3.83,0,0,0-3.31,2.54V68H85.27V46.57h4.64l1,2H91a7.12,7.12,0,0,1,5.66-2.51c3.26,0,4.59,1.37,5.35,2.89h.16A7.44,7.44,0,0,1,108.35,46.07Z" transform="translate(-17.01 -20.75)"/><path class="cls-1" d="M135.92,66.06c-1.67,1.36-3.76,2.39-7.86,2.39-6.77,0-10.22-3.8-10.22-11.21,0-7,3.87-11.09,10.07-11.09,5.47,0,8.62,3.45,8.62,8.7a25.85,25.85,0,0,1-.27,3.84h-12.8c.08,3.38,1.6,5.24,5.24,5.24A6.47,6.47,0,0,0,133.41,62ZM123.57,54.89h7.57v-.57c0-2.51-1.07-3.84-3.39-3.84C125.17,50.48,123.65,52.38,123.57,54.89Z" transform="translate(-17.01 -20.75)"/><path class="cls-1" d="M152.28,52a13.71,13.71,0,0,0-2.47-.19,8.36,8.36,0,0,0-5,1.71V68h-5.67V46.57h4.45l1.18,3.15h.15a5.71,5.71,0,0,1,5.55-3.61,9.16,9.16,0,0,1,1.82.19Z" transform="translate(-17.01 -20.75)"/><path class="cls-1" d="M154.1,52.83c0-3.49,3-6.64,8-6.64,3.87,0,6.34,1.36,7.75,3l-3.69,3.61a5.7,5.7,0,0,0-4.21-2c-1.29,0-2.13.69-2.13,1.67,0,3.23,10.11,2.09,10.11,9.27,0,2.85-2.25,6.69-8.48,6.69-4.71,0-7.56-2-8.74-3.23l3.42-4a7.84,7.84,0,0,0,5.63,2.66c1.78,0,2.47-.84,2.47-1.82C164.21,59,154.1,60,154.1,52.83Z" transform="translate(-17.01 -20.75)"/></g><polygon id="dach" class="cls-2" points="98.05 0 68.26 13.89 68.26 20.14 98.05 6.25 127.79 20.12 127.79 13.87 98.05 0"/></svg>