<svg version="1.1" xmlns="http://www.w3.org/2000/svg" xmlns:xlink="http://www.w3.org/1999/xlink" width="80px" height="80px" viewBox="0,0,256,256"><g fill="#ffffff" fill-rule="nonzero" stroke="none" stroke-width="1" stroke-linecap="butt" stroke-linejoin="miter" stroke-miterlimit="10" stroke-dasharray="" stroke-dashoffset="0" font-family="none" font-weight="none" font-size="none" text-anchor="none" style="mix-blend-mode: normal"><g transform="translate(-0.00564,0.00564) scale(3.2,3.2)"><g id="surface1"><path d="M25.76563,3.84375c-1.20312,-2.90625 -4.375,-4.45312 -7.40625,-3.625l-13.75,3.75c-2.71875,0.75 -4.60937,3.21875 -4.60937,6.03125c0,38.65625 31.34375,70 70,70c2.8125,0 5.28125,-1.89062 6.03125,-4.60937l3.75,-13.75c0.82813,-3.03125 -0.71875,-6.20312 -3.625,-7.40625l-15,-6.25c-2.54687,-1.0625 -5.5,-0.32812 -7.23437,1.8125l-6.3125,7.70313c-11,-5.20312 -19.90625,-14.10937 -25.10937,-25.10937l7.70313,-6.29687c2.14063,-1.75 2.875,-4.6875 1.8125,-7.23437l-6.25,-15zM25.76563,3.84375"></path></g></g></g></svg>