<svg version="1.1" xmlns="http://www.w3.org/2000/svg" xmlns:xlink="http://www.w3.org/1999/xlink" width="512px" height="512px" viewBox="0,0,256,256"><g fill="#f35c27" fill-rule="nonzero" stroke="none" stroke-width="1" stroke-linecap="butt" stroke-linejoin="miter" stroke-miterlimit="10" stroke-dasharray="" stroke-dashoffset="0" font-family="none" font-weight="none" font-size="none" text-anchor="none" style="mix-blend-mode: normal"><g transform="scale(0.5,0.5)"><path d="M48,64c-26.5,0 -48,21.5 -48,48c0,15.1 7.1,29.3 19.2,38.4l217.6,163.2c11.4,8.5 27,8.5 38.4,0l217.6,-163.2c12.1,-9.1 19.2,-23.3 19.2,-38.4c0,-26.5 -21.5,-48 -48,-48zM0,176v208c0,35.3 28.7,64 64,64h384c35.3,0 64,-28.7 64,-64v-208l-217.6,163.2c-22.8,17.1 -54,17.1 -76.8,0z"></path></g></g></svg>