<?xml version="1.0" encoding="UTF-8"?>
<svg xmlns="http://www.w3.org/2000/svg" xmlns:xlink="http://www.w3.org/1999/xlink" width="187px" height="64px" viewBox="0 0 198 64" version="1.1">
<g id="surface1">
<path style=" stroke:none;fill-rule:nonzero;fill:rgb(95.294118%,36.078431%,15.294118%);fill-opacity:1;" d="M 0.484375 0.429688 L 197.519531 0.429688 L 197.519531 63.570312 L 0.484375 63.570312 Z M 0.484375 0.429688 "/>
<path style=" stroke:none;fill-rule:nonzero;fill:rgb(10.980392%,10.980392%,10.980392%);fill-opacity:1;" d="M 197.867188 63.996094 L 0.132812 63.996094 L 0.132812 0 L 197.867188 0 Z M 0.832031 63.125 L 197.167969 63.125 L 197.167969 0.859375 L 0.832031 0.859375 Z M 0.832031 63.125 "/>
<path style=" stroke:none;fill-rule:nonzero;fill:rgb(10.980392%,10.980392%,10.980392%);fill-opacity:1;" d="M 56.476562 5.4375 L 57.449219 5.4375 L 57.449219 58.558594 L 56.476562 58.558594 Z M 56.476562 5.4375 "/>
<path style=" stroke:none;fill-rule:nonzero;fill:rgb(10.980392%,10.980392%,10.980392%);fill-opacity:1;" d="M 47.660156 41.4375 L 47.660156 39.175781 L 47.3125 18.332031 C 47.636719 14.933594 47.566406 11.503906 47.105469 8.121094 C 47.105469 8.121094 46.78125 22.140625 39.175781 30.847656 C 38.394531 29 36.542969 27.847656 34.546875 27.960938 C 34.546875 27.960938 40.886719 34.214844 35.246094 44.238281 C 29.609375 54.265625 19.253906 54.675781 19.253906 54.675781 C 19.253906 54.675781 41.289062 57.210938 40.144531 34.539062 C 40.144531 34.539062 44.949219 30.789062 46.796875 21.675781 L 46.507812 39.355469 L 46.507812 42.609375 L 48.074219 42.609375 L 48.074219 46.164062 L 46.875 47.328125 L 45.703125 46.164062 L 45.703125 43.007812 L 44.53125 43.007812 L 44.53125 46.542969 L 46.875 48.898438 L 49.222656 46.542969 L 49.222656 41.4375 Z M 47.660156 41.4375 "/>
<path style=" stroke:none;fill-rule:nonzero;fill:rgb(10.980392%,10.980392%,10.980392%);fill-opacity:1;" d="M 30.636719 38.351562 C 30.636719 38.351562 33.578125 29.539062 24.316406 28.496094 C 24.316406 28.496094 32.214844 32.984375 25.023438 42.84375 C 25.023438 42.84375 21.046875 48.261719 15.867188 52.316406 C 15.867188 52.316406 13.6875 35.667969 18.761719 28.984375 C 18.761719 28.984375 13.582031 24.292969 16.738281 16.316406 C 16.738281 16.316406 10.488281 22.632812 16.410156 29.3125 C 16.410156 29.3125 9.542969 32.601562 13.359375 57.132812 C 13.359375 57.132812 27.3125 50.125 30.636719 38.351562 Z M 30.636719 38.351562 "/>
<path style=" stroke:none;fill-rule:nonzero;fill:rgb(10.980392%,10.980392%,10.980392%);fill-opacity:1;" d="M 34.558594 20.210938 C 34.476562 20.238281 33.664062 20.464844 33.664062 20.488281 L 33.664062 21.191406 L 33.703125 21.84375 C 34.570312 22.15625 35.523438 22.109375 36.351562 21.714844 C 37.15625 21.332031 37.773438 20.644531 38.070312 19.804688 C 38.355469 18.992188 38.308594 18.097656 37.945312 17.320312 C 37.597656 16.597656 36.992188 16.035156 36.246094 15.75 C 36.265625 15.773438 36.28125 15.792969 36.296875 15.816406 C 36.324219 15.851562 36.351562 15.882812 36.382812 15.914062 C 36.792969 16.308594 37.082031 16.8125 37.21875 17.367188 C 37.324219 17.878906 37.195312 18.414062 36.863281 18.820312 C 36.320312 19.519531 35.390625 19.917969 34.558594 20.210938 Z M 34.558594 20.210938 "/>
<path style=" stroke:none;fill-rule:nonzero;fill:rgb(10.980392%,10.980392%,10.980392%);fill-opacity:1;" d="M 24.316406 17.007812 L 24.359375 16.933594 C 23.679688 17.359375 23.191406 18.027344 22.988281 18.804688 C 22.773438 19.636719 22.898438 20.519531 23.332031 21.261719 C 23.785156 22.03125 24.519531 22.585938 25.378906 22.8125 C 26.269531 23.039062 27.214844 22.902344 28.003906 22.429688 L 27.917969 21.78125 L 27.792969 21.089844 C 27.792969 21.066406 26.949219 21.003906 26.859375 20.988281 C 25.992188 20.863281 25.015625 20.644531 24.328125 20.050781 C 23.929688 19.714844 23.699219 19.21875 23.703125 18.699219 C 23.734375 18.128906 23.925781 17.582031 24.257812 17.121094 C 24.28125 17.085938 24.300781 17.046875 24.316406 17.007812 Z M 24.316406 17.007812 "/>
<path style=" stroke:none;fill-rule:nonzero;fill:rgb(10.980392%,10.980392%,10.980392%);fill-opacity:1;" d="M 31.28125 25.09375 L 31.375 24.953125 C 31.984375 12.015625 40.265625 6.859375 40.265625 6.859375 C 30.933594 9.792969 30.648438 18.898438 30.648438 18.898438 C 28.777344 11.136719 21.339844 11.820312 21.339844 11.820312 C 21.339844 11.820312 27.878906 13.058594 31.28125 25.09375 Z M 31.28125 25.09375 "/>
<path style=" stroke:none;fill-rule:nonzero;fill:rgb(10.980392%,10.980392%,10.980392%);fill-opacity:1;" d="M 67.226562 22.789062 L 63.394531 12.34375 L 64.753906 12.34375 L 67.808594 21.101562 L 67.921875 21.101562 L 70.976562 12.34375 L 72.339844 12.34375 L 68.507812 22.789062 Z M 67.226562 22.789062 "/>
<path style=" stroke:none;fill-rule:nonzero;fill:rgb(10.980392%,10.980392%,10.980392%);fill-opacity:1;" d="M 80.601562 22.789062 L 74.160156 22.789062 L 74.160156 12.34375 L 80.601562 12.34375 L 80.601562 13.503906 L 75.457031 13.503906 L 75.457031 16.855469 L 80.335938 16.855469 L 80.335938 18.019531 L 75.457031 18.019531 L 75.457031 21.609375 L 80.601562 21.609375 Z M 80.601562 22.789062 "/>
<path style=" stroke:none;fill-rule:nonzero;fill:rgb(10.980392%,10.980392%,10.980392%);fill-opacity:1;" d="M 84.246094 22.789062 L 82.949219 22.789062 L 82.949219 12.34375 L 86.917969 12.34375 C 88.917969 12.34375 90.230469 13.574219 90.230469 15.453125 C 90.230469 16.910156 89.445312 18.039062 88.140625 18.453125 L 90.546875 22.789062 L 89.027344 22.789062 L 86.800781 18.65625 L 84.246094 18.65625 Z M 84.246094 17.496094 L 86.800781 17.496094 C 88.136719 17.496094 88.890625 16.78125 88.890625 15.5 C 88.890625 14.214844 88.082031 13.5 86.742188 13.5 L 84.246094 13.5 Z M 84.246094 17.496094 "/>
<path style=" stroke:none;fill-rule:nonzero;fill:rgb(10.980392%,10.980392%,10.980392%);fill-opacity:1;" d="M 95.285156 22.789062 L 95.285156 13.515625 L 91.933594 13.515625 L 91.933594 12.355469 L 99.929688 12.355469 L 99.929688 13.515625 L 96.582031 13.515625 L 96.582031 22.789062 Z M 95.285156 22.789062 "/>
<path style=" stroke:none;fill-rule:nonzero;fill:rgb(10.980392%,10.980392%,10.980392%);fill-opacity:1;" d="M 101.933594 22.789062 L 101.933594 12.34375 L 103.230469 12.34375 L 103.230469 22.789062 Z M 101.933594 22.789062 "/>
<path style=" stroke:none;fill-rule:nonzero;fill:rgb(10.980392%,10.980392%,10.980392%);fill-opacity:1;" d="M 105.878906 22.789062 L 105.878906 12.34375 L 107.183594 12.34375 L 107.183594 17.417969 L 107.296875 17.417969 L 111.847656 12.34375 L 113.476562 12.34375 L 109.320312 16.851562 L 113.859375 22.789062 L 112.183594 22.789062 L 108.421875 17.757812 L 107.183594 19.132812 L 107.183594 22.78125 Z M 105.878906 22.789062 "/>
<path style=" stroke:none;fill-rule:nonzero;fill:rgb(10.980392%,10.980392%,10.980392%);fill-opacity:1;" d="M 121.308594 19.796875 L 117.175781 19.796875 L 116.128906 22.789062 L 114.769531 22.789062 L 118.601562 12.34375 L 119.882812 12.34375 L 123.714844 22.789062 L 122.351562 22.789062 Z M 117.546875 18.691406 L 120.917969 18.691406 L 119.289062 14.039062 L 119.175781 14.039062 Z M 117.546875 18.691406 "/>
<path style=" stroke:none;fill-rule:nonzero;fill:rgb(10.980392%,10.980392%,10.980392%);fill-opacity:1;" d="M 131.84375 22.789062 L 125.535156 22.789062 L 125.535156 12.34375 L 126.832031 12.34375 L 126.832031 21.613281 L 131.84375 21.613281 Z M 131.84375 22.789062 "/>
<path style=" stroke:none;fill-rule:nonzero;fill:rgb(10.980392%,10.980392%,10.980392%);fill-opacity:1;" d="M 63.820312 32.390625 C 63.820312 29.019531 65.578125 26.921875 68.398438 26.921875 C 70.589844 26.921875 72.296875 28.300781 72.605469 30.3125 L 71.285156 30.3125 C 70.964844 28.984375 69.753906 28.066406 68.394531 28.121094 C 66.398438 28.121094 65.144531 29.773438 65.144531 32.390625 C 65.144531 35.011719 66.398438 36.65625 68.398438 36.65625 C 69.847656 36.65625 70.953125 35.910156 71.292969 34.699219 L 72.613281 34.699219 C 72.265625 36.617188 70.625 37.855469 68.410156 37.855469 C 65.582031 37.855469 63.820312 35.757812 63.820312 32.390625 Z M 63.820312 32.390625 "/>
<path style=" stroke:none;fill-rule:nonzero;fill:rgb(10.980392%,10.980392%,10.980392%);fill-opacity:1;" d="M 83.90625 32.386719 C 83.90625 35.722656 82.117188 37.855469 79.152344 37.855469 C 76.183594 37.855469 74.378906 35.730469 74.378906 32.386719 C 74.378906 29.042969 76.210938 26.921875 79.152344 26.921875 C 82.089844 26.921875 83.90625 29.035156 83.90625 32.386719 Z M 75.710938 32.386719 C 75.710938 34.976562 76.992188 36.65625 79.152344 36.65625 C 81.3125 36.65625 82.574219 34.976562 82.574219 32.386719 C 82.574219 29.796875 81.277344 28.121094 79.152344 28.121094 C 77.023438 28.121094 75.710938 29.773438 75.710938 32.386719 Z M 75.710938 32.386719 "/>
<path style=" stroke:none;fill-rule:nonzero;fill:rgb(10.980392%,10.980392%,10.980392%);fill-opacity:1;" d="M 86.152344 37.609375 L 86.152344 27.167969 L 87.414062 27.167969 L 93.050781 35.304688 L 93.167969 35.304688 L 93.167969 27.167969 L 94.457031 27.167969 L 94.457031 37.609375 L 93.199219 37.609375 L 87.558594 29.511719 L 87.445312 29.511719 L 87.445312 37.609375 Z M 86.152344 37.609375 "/>
<path style=" stroke:none;fill-rule:nonzero;fill:rgb(10.980392%,10.980392%,10.980392%);fill-opacity:1;" d="M 97.929688 34.882812 C 98.085938 35.976562 99.125 36.671875 100.601562 36.671875 C 101.996094 36.671875 103.027344 35.910156 103.027344 34.875 C 103.027344 33.984375 102.378906 33.421875 100.949219 33.058594 L 99.613281 32.710938 C 97.734375 32.234375 96.921875 31.378906 96.921875 29.894531 C 96.921875 28.121094 98.398438 26.921875 100.59375 26.921875 C 102.601562 26.921875 104.101562 28.121094 104.210938 29.808594 L 102.90625 29.808594 C 102.726562 28.738281 101.847656 28.097656 100.550781 28.097656 C 99.167969 28.097656 98.253906 28.792969 98.253906 29.84375 C 98.253906 30.660156 98.832031 31.132812 100.257812 31.5 L 101.34375 31.789062 C 103.496094 32.335938 104.359375 33.171875 104.359375 34.699219 C 104.359375 36.617188 102.855469 37.839844 100.480469 37.839844 C 98.277344 37.839844 96.753906 36.675781 96.617188 34.867188 Z M 97.929688 34.882812 "/>
<path style=" stroke:none;fill-rule:nonzero;fill:rgb(10.980392%,10.980392%,10.980392%);fill-opacity:1;" d="M 109.207031 37.609375 L 109.207031 28.339844 L 105.851562 28.339844 L 105.851562 27.179688 L 113.835938 27.179688 L 113.835938 28.339844 L 110.5 28.339844 L 110.5 37.609375 Z M 109.207031 37.609375 "/>
<path style=" stroke:none;fill-rule:nonzero;fill:rgb(10.980392%,10.980392%,10.980392%);fill-opacity:1;" d="M 117.144531 37.609375 L 115.859375 37.609375 L 115.859375 27.167969 L 119.828125 27.167969 C 121.832031 27.167969 123.140625 28.394531 123.140625 30.277344 C 123.140625 31.734375 122.355469 32.863281 121.054688 33.277344 L 123.460938 37.609375 L 121.933594 37.609375 L 119.710938 33.480469 L 117.152344 33.480469 Z M 117.144531 32.320312 L 119.703125 32.320312 C 121.035156 32.320312 121.789062 31.605469 121.789062 30.324219 C 121.789062 29.039062 120.984375 28.324219 119.644531 28.324219 L 117.144531 28.324219 Z M 117.144531 32.320312 "/>
<path style=" stroke:none;fill-rule:nonzero;fill:rgb(10.980392%,10.980392%,10.980392%);fill-opacity:1;" d="M 126.816406 33.933594 C 126.816406 35.511719 127.847656 36.65625 129.648438 36.65625 C 131.449219 36.65625 132.476562 35.511719 132.476562 33.933594 L 132.476562 27.167969 L 133.777344 27.167969 L 133.777344 34.019531 C 133.777344 36.25 132.226562 37.855469 129.648438 37.855469 C 127.070312 37.855469 125.523438 36.25 125.523438 34.019531 L 125.523438 27.167969 L 126.816406 27.167969 Z M 126.816406 33.933594 "/>
<path style=" stroke:none;fill-rule:nonzero;fill:rgb(10.980392%,10.980392%,10.980392%);fill-opacity:1;" d="M 136.058594 32.390625 C 136.058594 29.019531 137.816406 26.921875 140.640625 26.921875 C 142.828125 26.921875 144.535156 28.300781 144.84375 30.3125 L 143.527344 30.3125 C 143.207031 28.984375 141.996094 28.066406 140.632812 28.121094 C 138.636719 28.121094 137.386719 29.773438 137.386719 32.390625 C 137.386719 35.011719 138.636719 36.65625 140.640625 36.65625 C 142.085938 36.65625 143.191406 35.910156 143.53125 34.699219 L 144.851562 34.699219 C 144.503906 36.617188 142.863281 37.855469 140.652344 37.855469 C 137.824219 37.855469 136.058594 35.757812 136.058594 32.390625 Z M 136.058594 32.390625 "/>
<path style=" stroke:none;fill-rule:nonzero;fill:rgb(10.980392%,10.980392%,10.980392%);fill-opacity:1;" d="M 149.722656 37.609375 L 149.722656 28.339844 L 146.371094 28.339844 L 146.371094 27.179688 L 154.367188 27.179688 L 154.367188 28.339844 L 151.019531 28.339844 L 151.019531 37.609375 Z M 149.722656 37.609375 "/>
<path style=" stroke:none;fill-rule:nonzero;fill:rgb(10.980392%,10.980392%,10.980392%);fill-opacity:1;" d="M 156.367188 37.609375 L 156.367188 27.167969 L 157.664062 27.167969 L 157.664062 37.609375 Z M 156.367188 37.609375 "/>
<path style=" stroke:none;fill-rule:nonzero;fill:rgb(10.980392%,10.980392%,10.980392%);fill-opacity:1;" d="M 169.441406 32.386719 C 169.441406 35.722656 167.65625 37.855469 164.6875 37.855469 C 161.71875 37.855469 159.910156 35.730469 159.910156 32.386719 C 159.910156 29.042969 161.75 26.921875 164.6875 26.921875 C 167.625 26.921875 169.441406 29.035156 169.441406 32.386719 Z M 161.246094 32.386719 C 161.246094 34.976562 162.527344 36.65625 164.6875 36.65625 C 166.847656 36.65625 168.109375 34.976562 168.109375 32.386719 C 168.109375 29.796875 166.8125 28.121094 164.6875 28.121094 C 162.5625 28.121094 161.246094 29.773438 161.246094 32.386719 Z M 161.246094 32.386719 "/>
<path style=" stroke:none;fill-rule:nonzero;fill:rgb(10.980392%,10.980392%,10.980392%);fill-opacity:1;" d="M 171.683594 37.609375 L 171.683594 27.167969 L 172.941406 27.167969 L 178.582031 35.304688 L 178.699219 35.304688 L 178.699219 27.167969 L 179.980469 27.167969 L 179.980469 37.609375 L 178.71875 37.609375 L 173.082031 29.511719 L 172.964844 29.511719 L 172.964844 37.609375 Z M 171.683594 37.609375 "/>
<path style=" stroke:none;fill-rule:nonzero;fill:rgb(10.980392%,10.980392%,10.980392%);fill-opacity:1;" d="M 66.921875 52.433594 L 66.921875 43.160156 L 63.574219 43.160156 L 63.574219 42 L 71.566406 42 L 71.566406 43.160156 L 68.21875 43.160156 L 68.21875 52.433594 Z M 66.921875 52.433594 "/>
<path style=" stroke:none;fill-rule:nonzero;fill:rgb(10.980392%,10.980392%,10.980392%);fill-opacity:1;" d="M 80.011719 52.433594 L 73.570312 52.433594 L 73.570312 41.992188 L 80.011719 41.992188 L 80.011719 43.152344 L 74.867188 43.152344 L 74.867188 46.511719 L 79.742188 46.511719 L 79.742188 47.675781 L 74.867188 47.675781 L 74.867188 51.265625 L 80.011719 51.265625 Z M 80.011719 52.433594 "/>
<path style=" stroke:none;fill-rule:nonzero;fill:rgb(10.980392%,10.980392%,10.980392%);fill-opacity:1;" d="M 81.953125 47.214844 C 81.953125 43.84375 83.710938 41.742188 86.535156 41.742188 C 88.726562 41.742188 90.429688 43.125 90.742188 45.136719 L 89.421875 45.136719 C 89.101562 43.808594 87.890625 42.890625 86.53125 42.945312 C 84.535156 42.945312 83.28125 44.59375 83.28125 47.214844 C 83.28125 49.839844 84.535156 51.480469 86.535156 51.480469 C 87.980469 51.480469 89.085938 50.734375 89.425781 49.523438 L 90.746094 49.523438 C 90.402344 51.441406 88.757812 52.679688 86.546875 52.679688 C 83.71875 52.679688 81.953125 50.582031 81.953125 47.214844 Z M 81.953125 47.214844 "/>
<path style=" stroke:none;fill-rule:nonzero;fill:rgb(10.980392%,10.980392%,10.980392%);fill-opacity:1;" d="M 99.917969 52.433594 L 99.917969 47.679688 L 94.210938 47.679688 L 94.210938 52.433594 L 92.914062 52.433594 L 92.914062 41.992188 L 94.210938 41.992188 L 94.210938 46.507812 L 99.917969 46.507812 L 99.917969 41.992188 L 101.214844 41.992188 L 101.214844 52.433594 Z M 99.917969 52.433594 "/>
<path style=" stroke:none;fill-rule:nonzero;fill:rgb(10.980392%,10.980392%,10.980392%);fill-opacity:1;" d="M 103.863281 52.433594 L 103.863281 41.992188 L 105.125 41.992188 L 110.765625 50.128906 L 110.878906 50.128906 L 110.878906 41.992188 L 112.160156 41.992188 L 112.160156 52.433594 L 110.902344 52.433594 L 105.261719 44.335938 L 105.160156 44.335938 L 105.160156 52.433594 Z M 103.863281 52.433594 "/>
<path style=" stroke:none;fill-rule:nonzero;fill:rgb(10.980392%,10.980392%,10.980392%);fill-opacity:1;" d="M 123.9375 47.207031 C 123.9375 50.542969 122.152344 52.679688 119.183594 52.679688 C 116.21875 52.679688 114.414062 50.554688 114.414062 47.207031 C 114.414062 43.863281 116.25 41.742188 119.191406 41.742188 C 122.128906 41.742188 123.9375 43.855469 123.9375 47.207031 Z M 115.738281 47.207031 C 115.738281 49.800781 117.023438 51.480469 119.183594 51.480469 C 121.34375 51.480469 122.601562 49.800781 122.601562 47.207031 C 122.601562 44.613281 121.308594 42.945312 119.183594 42.945312 C 117.0625 42.945312 115.738281 44.59375 115.738281 47.207031 Z M 115.738281 47.207031 "/>
<path style=" stroke:none;fill-rule:nonzero;fill:rgb(10.980392%,10.980392%,10.980392%);fill-opacity:1;" d="M 132.492188 52.433594 L 126.183594 52.433594 L 126.183594 41.992188 L 127.480469 41.992188 L 127.480469 51.261719 L 132.492188 51.261719 Z M 132.492188 52.433594 "/>
<path style=" stroke:none;fill-rule:nonzero;fill:rgb(10.980392%,10.980392%,10.980392%);fill-opacity:1;" d="M 143.6875 47.207031 C 143.6875 50.542969 141.898438 52.679688 138.933594 52.679688 C 135.96875 52.679688 134.160156 50.554688 134.160156 47.207031 C 134.160156 43.863281 135.996094 41.742188 138.933594 41.742188 C 141.871094 41.742188 143.6875 43.855469 143.6875 47.207031 Z M 135.488281 47.207031 C 135.488281 49.800781 136.769531 51.480469 138.933594 51.480469 C 141.097656 51.480469 142.351562 49.800781 142.351562 47.207031 C 142.351562 44.613281 141.054688 42.945312 138.933594 42.945312 C 136.808594 42.945312 135.488281 44.59375 135.488281 47.207031 Z M 135.488281 47.207031 "/>
<path style=" stroke:none;fill-rule:nonzero;fill:rgb(10.980392%,10.980392%,10.980392%);fill-opacity:1;" d="M 150.238281 52.679688 C 147.363281 52.679688 145.527344 50.554688 145.527344 47.207031 C 145.527344 43.910156 147.394531 41.742188 150.238281 41.742188 C 152.554688 41.742188 154.214844 43.035156 154.578125 45.101562 L 153.257812 45.101562 C 152.8125 43.691406 151.769531 42.945312 150.226562 42.945312 C 148.167969 42.945312 146.851562 44.609375 146.851562 47.207031 C 146.851562 49.804688 148.144531 51.480469 150.238281 51.480469 C 152.09375 51.480469 153.355469 50.285156 153.355469 48.519531 L 153.355469 48.265625 L 150.441406 48.265625 L 150.441406 47.121094 L 154.652344 47.121094 L 154.652344 48.398438 C 154.652344 50.972656 152.898438 52.679688 150.238281 52.679688 Z M 150.238281 52.679688 "/>
<path style=" stroke:none;fill-rule:nonzero;fill:rgb(10.980392%,10.980392%,10.980392%);fill-opacity:1;" d="M 156.933594 52.433594 L 156.933594 41.992188 L 158.230469 41.992188 L 158.230469 52.433594 Z M 156.933594 52.433594 "/>
<path style=" stroke:none;fill-rule:nonzero;fill:rgb(10.980392%,10.980392%,10.980392%);fill-opacity:1;" d="M 167.34375 52.433594 L 160.890625 52.433594 L 160.890625 41.992188 L 167.34375 41.992188 L 167.34375 43.152344 L 162.1875 43.152344 L 162.1875 46.511719 L 167.054688 46.511719 L 167.054688 47.675781 L 162.1875 47.675781 L 162.1875 51.265625 L 167.34375 51.265625 Z M 167.34375 52.433594 "/>
<path style=" stroke:none;fill-rule:nonzero;fill:rgb(10.980392%,10.980392%,10.980392%);fill-opacity:1;" d="M 170.492188 49.703125 C 170.652344 50.796875 171.691406 51.492188 173.164062 51.492188 C 174.5625 51.492188 175.589844 50.734375 175.589844 49.699219 C 175.589844 48.808594 174.945312 48.246094 173.511719 47.882812 L 172.179688 47.535156 C 170.296875 47.058594 169.484375 46.203125 169.484375 44.71875 C 169.484375 42.945312 170.960938 41.742188 173.160156 41.742188 C 175.167969 41.742188 176.664062 42.945312 176.773438 44.632812 L 175.46875 44.632812 C 175.289062 43.558594 174.410156 42.921875 173.117188 42.921875 C 171.734375 42.921875 170.800781 43.617188 170.800781 44.667969 C 170.800781 45.484375 171.378906 45.957031 172.804688 46.324219 L 173.894531 46.613281 C 176.046875 47.15625 176.910156 47.996094 176.910156 49.523438 C 176.910156 51.441406 175.40625 52.664062 173.027344 52.664062 C 170.824219 52.664062 169.304688 51.5 169.167969 49.6875 Z M 170.492188 49.703125 "/>
</g>
</svg>
