<?xml version="1.0" encoding="UTF-8"?>
<svg xmlns="http://www.w3.org/2000/svg" xmlns:xlink="http://www.w3.org/1999/xlink" width="187px" height="64px" viewBox="0 0 198 64" version="1.1">
<g id="surface1">
<path style=" stroke:none;fill-rule:nonzero;fill:rgb(95.294118%,36.078431%,15.294118%);fill-opacity:1;" d="M 0.484375 0.429688 L 197.519531 0.429688 L 197.519531 63.570312 L 0.484375 63.570312 Z M 0.484375 0.429688 "/>
<path style=" stroke:none;fill-rule:nonzero;fill:rgb(10.980392%,10.980392%,10.980392%);fill-opacity:1;" d="M 197.867188 64 L 0.132812 64 L 0.132812 0 L 197.867188 0 Z M 0.832031 63.128906 L 197.167969 63.128906 L 197.167969 0.859375 L 0.832031 0.859375 Z M 0.832031 63.128906 "/>
<path style=" stroke:none;fill-rule:nonzero;fill:rgb(10.980392%,10.980392%,10.980392%);fill-opacity:1;" d="M 56.476562 5.4375 L 57.449219 5.4375 L 57.449219 58.558594 L 56.476562 58.558594 Z M 56.476562 5.4375 "/>
<path style=" stroke:none;fill-rule:nonzero;fill:rgb(10.980392%,10.980392%,10.980392%);fill-opacity:1;" d="M 47.660156 41.4375 L 47.660156 39.195312 L 47.3125 18.332031 C 47.636719 14.933594 47.566406 11.503906 47.105469 8.121094 C 47.105469 8.121094 46.78125 22.144531 39.175781 30.847656 C 38.394531 29 36.542969 27.847656 34.546875 27.964844 C 34.546875 27.964844 40.886719 34.21875 35.246094 44.242188 C 29.609375 54.269531 19.257812 54.671875 19.257812 54.671875 C 19.257812 54.671875 41.296875 57.21875 40.152344 34.546875 C 40.152344 34.546875 44.957031 30.792969 46.804688 21.683594 L 46.515625 39.359375 L 46.515625 42.617188 L 48.082031 42.617188 L 48.082031 46.152344 L 46.90625 47.316406 L 45.734375 46.152344 L 45.734375 43.011719 L 44.5625 43.011719 L 44.5625 46.546875 L 46.90625 48.898438 L 49.253906 46.546875 L 49.253906 41.4375 Z M 47.660156 41.4375 "/>
<path style=" stroke:none;fill-rule:nonzero;fill:rgb(10.980392%,10.980392%,10.980392%);fill-opacity:1;" d="M 30.636719 38.355469 C 30.636719 38.355469 33.578125 29.542969 24.316406 28.496094 C 24.316406 28.496094 32.214844 32.984375 25.023438 42.84375 C 25.023438 42.84375 21.046875 48.265625 15.867188 52.316406 C 15.867188 52.316406 13.6875 35.667969 18.761719 28.988281 C 18.761719 28.988281 13.582031 24.296875 16.738281 16.316406 C 16.738281 16.316406 10.488281 22.632812 16.410156 29.316406 C 16.410156 29.316406 9.542969 32.601562 13.359375 57.136719 C 13.359375 57.136719 27.3125 50.113281 30.636719 38.355469 Z M 30.636719 38.355469 "/>
<path style=" stroke:none;fill-rule:nonzero;fill:rgb(10.980392%,10.980392%,10.980392%);fill-opacity:1;" d="M 34.558594 20.210938 C 34.476562 20.238281 33.664062 20.464844 33.664062 20.5 L 33.664062 21.203125 L 33.703125 21.855469 C 34.570312 22.167969 35.519531 22.121094 36.351562 21.726562 C 37.152344 21.34375 37.773438 20.65625 38.070312 19.816406 C 38.355469 19.007812 38.3125 18.113281 37.945312 17.335938 C 37.597656 16.613281 36.992188 16.050781 36.246094 15.761719 L 36.296875 15.828125 C 36.320312 15.863281 36.351562 15.894531 36.382812 15.925781 C 36.792969 16.320312 37.082031 16.824219 37.21875 17.378906 C 37.324219 17.890625 37.195312 18.425781 36.863281 18.832031 C 36.320312 19.519531 35.390625 19.917969 34.558594 20.210938 Z M 34.558594 20.210938 "/>
<path style=" stroke:none;fill-rule:nonzero;fill:rgb(10.980392%,10.980392%,10.980392%);fill-opacity:1;" d="M 24.316406 17.011719 C 24.328125 16.984375 24.34375 16.960938 24.359375 16.9375 C 23.679688 17.359375 23.191406 18.027344 22.988281 18.804688 C 22.773438 19.636719 22.894531 20.523438 23.332031 21.265625 C 23.78125 22.035156 24.519531 22.589844 25.378906 22.8125 C 25.816406 22.925781 26.269531 22.953125 26.71875 22.886719 C 27.171875 22.824219 27.609375 22.667969 28.003906 22.433594 L 27.917969 21.785156 L 27.792969 21.09375 C 27.792969 21.070312 26.949219 21.003906 26.859375 20.992188 C 25.992188 20.863281 25.015625 20.648438 24.328125 20.054688 C 23.925781 19.71875 23.699219 19.222656 23.703125 18.699219 C 23.734375 18.132812 23.925781 17.585938 24.257812 17.125 C 24.28125 17.085938 24.300781 17.050781 24.316406 17.011719 Z M 24.316406 17.011719 "/>
<path style=" stroke:none;fill-rule:nonzero;fill:rgb(10.980392%,10.980392%,10.980392%);fill-opacity:1;" d="M 31.28125 25.097656 L 31.375 24.953125 C 31.984375 12.019531 40.265625 6.863281 40.265625 6.863281 C 30.933594 9.796875 30.648438 18.898438 30.648438 18.898438 C 28.777344 11.136719 21.339844 11.824219 21.339844 11.824219 C 21.339844 11.824219 27.878906 13.058594 31.28125 25.097656 Z M 31.28125 25.097656 "/>
<path style=" stroke:none;fill-rule:nonzero;fill:rgb(10.980392%,10.980392%,10.980392%);fill-opacity:1;" d="M 64.292969 22.792969 L 64.292969 12.34375 L 68.269531 12.34375 C 70.179688 12.34375 71.34375 13.351562 71.34375 14.960938 C 71.347656 16.042969 70.601562 16.976562 69.550781 17.214844 L 69.550781 17.328125 C 70.972656 17.511719 71.863281 18.492188 71.863281 19.871094 C 71.863281 21.707031 70.554688 22.800781 68.34375 22.800781 Z M 65.589844 16.851562 L 67.664062 16.851562 C 69.234375 16.851562 70.035156 16.285156 70.035156 15.179688 C 70.035156 14.113281 69.285156 13.5 67.996094 13.5 L 65.589844 13.5 Z M 68.15625 21.628906 C 69.714844 21.628906 70.539062 20.992188 70.539062 19.78125 C 70.539062 18.574219 69.6875 17.960938 68.03125 17.960938 L 65.589844 17.960938 L 65.589844 21.628906 Z M 68.15625 21.628906 "/>
<path style=" stroke:none;fill-rule:nonzero;fill:rgb(10.980392%,10.980392%,10.980392%);fill-opacity:1;" d="M 80.574219 22.792969 L 74.132812 22.792969 L 74.132812 12.34375 L 80.574219 12.34375 L 80.574219 13.507812 L 75.429688 13.507812 L 75.429688 16.859375 L 80.304688 16.859375 L 80.304688 18.023438 L 75.429688 18.023438 L 75.429688 21.628906 L 80.574219 21.628906 Z M 80.574219 22.792969 "/>
<path style=" stroke:none;fill-rule:nonzero;fill:rgb(10.980392%,10.980392%,10.980392%);fill-opacity:1;" d="M 86.988281 12.34375 C 88.957031 12.34375 90.316406 13.734375 90.316406 15.726562 C 90.316406 17.714844 88.925781 19.0625 86.976562 19.0625 L 84.371094 19.0625 L 84.371094 22.792969 L 83.074219 22.792969 L 83.074219 12.34375 Z M 84.359375 17.902344 L 86.648438 17.902344 C 88.125 17.902344 88.980469 17.109375 88.980469 15.726562 C 88.980469 14.292969 88.152344 13.5 86.648438 13.5 L 84.355469 13.5 Z M 84.359375 17.902344 "/>
<path style=" stroke:none;fill-rule:nonzero;fill:rgb(10.980392%,10.980392%,10.980392%);fill-opacity:1;" d="M 95.277344 22.792969 L 95.277344 13.519531 L 91.929688 13.519531 L 91.929688 12.355469 L 99.925781 12.355469 L 99.925781 13.519531 L 96.574219 13.519531 L 96.574219 22.792969 Z M 95.277344 22.792969 "/>
<path style=" stroke:none;fill-rule:nonzero;fill:rgb(10.980392%,10.980392%,10.980392%);fill-opacity:1;" d="M 109.085938 14.480469 L 108.972656 14.480469 L 103.351562 22.792969 L 102.070312 22.792969 L 102.070312 12.34375 L 103.351562 12.34375 L 103.351562 20.683594 L 103.46875 20.683594 L 109.085938 12.34375 L 110.367188 12.34375 L 110.367188 22.792969 L 109.082031 22.792969 Z M 109.085938 14.480469 "/>
<path style=" stroke:none;fill-rule:nonzero;fill:rgb(10.980392%,10.980392%,10.980392%);fill-opacity:1;" d="M 114.761719 16.933594 L 119.125 12.34375 L 120.753906 12.34375 L 115.878906 17.375 L 121.171875 22.792969 L 119.457031 22.792969 L 114.761719 17.976562 L 114.457031 17.976562 L 114.457031 22.792969 L 113.164062 22.792969 L 113.164062 12.34375 L 114.457031 12.34375 L 114.457031 16.933594 Z M 114.761719 16.933594 "/>
<path style=" stroke:none;fill-rule:nonzero;fill:rgb(10.980392%,10.980392%,10.980392%);fill-opacity:1;" d="M 128.769531 19.800781 L 124.636719 19.800781 L 123.59375 22.792969 L 122.222656 22.792969 L 126.058594 12.347656 L 127.339844 12.347656 L 131.191406 22.792969 L 129.828125 22.792969 Z M 125.007812 18.691406 L 128.378906 18.691406 L 126.75 14.042969 L 126.636719 14.042969 Z M 125.007812 18.691406 "/>
<path style=" stroke:none;fill-rule:nonzero;fill:rgb(10.980392%,10.980392%,10.980392%);fill-opacity:1;" d="M 139.316406 22.792969 L 139.316406 13.519531 L 135.527344 13.519531 L 135.199219 18.886719 C 135.039062 21.394531 134.382812 22.859375 132.546875 22.859375 C 132.375 22.859375 132.207031 22.835938 132.042969 22.785156 L 132.042969 21.621094 C 132.171875 21.648438 132.304688 21.664062 132.433594 21.667969 C 133.589844 21.667969 133.878906 20.472656 133.972656 18.835938 L 134.347656 12.351562 L 140.621094 12.351562 L 140.621094 22.792969 Z M 139.316406 22.792969 "/>
<path style=" stroke:none;fill-rule:nonzero;fill:rgb(10.980392%,10.980392%,10.980392%);fill-opacity:1;" d="M 143.40625 12.34375 L 144.699219 12.34375 L 144.699219 16.214844 L 147.242188 16.214844 C 149.195312 16.214844 150.585938 17.570312 150.585938 19.511719 C 150.585938 21.449219 149.210938 22.792969 147.257812 22.792969 L 143.40625 22.792969 Z M 146.917969 21.628906 C 148.410156 21.628906 149.253906 20.867188 149.253906 19.519531 C 149.253906 18.175781 148.402344 17.402344 146.917969 17.402344 L 144.699219 17.402344 L 144.699219 21.628906 Z M 146.917969 21.628906 "/>
<path style=" stroke:none;fill-rule:nonzero;fill:rgb(10.980392%,10.980392%,10.980392%);fill-opacity:1;" d="M 63.890625 32.382812 C 63.890625 29.007812 65.648438 26.910156 68.472656 26.910156 C 70.660156 26.910156 72.367188 28.292969 72.679688 30.304688 L 71.359375 30.304688 C 71.039062 28.976562 69.828125 28.058594 68.464844 28.113281 C 66.472656 28.113281 65.21875 29.761719 65.21875 32.382812 C 65.21875 35.003906 66.472656 36.644531 68.472656 36.644531 C 69.917969 36.644531 71.023438 35.902344 71.363281 34.691406 L 72.683594 34.691406 C 72.335938 36.609375 70.695312 37.847656 68.484375 37.847656 C 65.65625 37.859375 63.890625 35.761719 63.890625 32.382812 Z M 63.890625 32.382812 "/>
<path style=" stroke:none;fill-rule:nonzero;fill:rgb(10.980392%,10.980392%,10.980392%);fill-opacity:1;" d="M 77.699219 37.617188 L 77.699219 28.34375 L 74.351562 28.34375 L 74.351562 27.179688 L 82.34375 27.179688 L 82.34375 28.34375 L 78.996094 28.34375 L 78.996094 37.617188 Z M 77.699219 37.617188 "/>
<path style=" stroke:none;fill-rule:nonzero;fill:rgb(10.980392%,10.980392%,10.980392%);fill-opacity:1;" d="M 88.414062 27.167969 C 90.382812 27.167969 91.742188 28.558594 91.742188 30.550781 C 91.742188 32.539062 90.351562 33.886719 88.402344 33.886719 L 85.796875 33.886719 L 85.796875 37.617188 L 84.503906 37.617188 L 84.503906 27.167969 Z M 85.78125 32.726562 L 88.070312 32.726562 C 89.546875 32.726562 90.40625 31.929688 90.40625 30.550781 C 90.40625 29.117188 89.574219 28.324219 88.070312 28.324219 L 85.78125 28.324219 Z M 85.78125 32.726562 "/>
<path style=" stroke:none;fill-rule:nonzero;fill:rgb(10.980392%,10.980392%,10.980392%);fill-opacity:1;" d="M 103.132812 32.382812 C 103.132812 35.71875 101.351562 37.855469 98.382812 37.855469 C 95.414062 37.855469 93.589844 35.730469 93.589844 32.382812 C 93.589844 29.035156 95.425781 26.917969 98.363281 26.917969 C 101.304688 26.917969 103.132812 29.035156 103.132812 32.382812 Z M 94.9375 32.382812 C 94.9375 34.976562 96.222656 36.652344 98.382812 36.652344 C 100.542969 36.652344 101.800781 34.976562 101.800781 32.382812 C 101.800781 29.789062 100.503906 28.121094 98.382812 28.121094 C 96.257812 28.121094 94.933594 29.769531 94.933594 32.382812 Z M 94.9375 32.382812 "/>
<path style=" stroke:none;fill-rule:nonzero;fill:rgb(10.980392%,10.980392%,10.980392%);fill-opacity:1;" d="M 112.535156 29.300781 L 112.417969 29.300781 L 106.800781 37.617188 L 105.519531 37.617188 L 105.519531 27.167969 L 106.800781 27.167969 L 106.800781 35.503906 L 106.917969 35.503906 L 112.535156 27.167969 L 113.820312 27.167969 L 113.820312 37.617188 L 112.535156 37.617188 Z M 112.535156 29.300781 "/>
<path style=" stroke:none;fill-rule:nonzero;fill:rgb(10.980392%,10.980392%,10.980392%);fill-opacity:1;" d="M 119.3125 37.617188 L 119.3125 28.34375 L 115.964844 28.34375 L 115.964844 27.179688 L 123.960938 27.179688 L 123.960938 28.34375 L 120.609375 28.34375 L 120.609375 37.617188 Z M 119.3125 37.617188 "/>
<path style=" stroke:none;fill-rule:nonzero;fill:rgb(10.980392%,10.980392%,10.980392%);fill-opacity:1;" d="M 132.542969 37.617188 L 126.105469 37.617188 L 126.105469 27.167969 L 132.542969 27.167969 L 132.542969 28.332031 L 127.402344 28.332031 L 127.402344 31.683594 L 132.277344 31.683594 L 132.277344 32.847656 L 127.402344 32.847656 L 127.402344 36.453125 L 132.542969 36.453125 Z M 132.542969 37.617188 "/>
<path style=" stroke:none;fill-rule:nonzero;fill:rgb(10.980392%,10.980392%,10.980392%);fill-opacity:1;" d="M 141.207031 37.617188 L 141.207031 28.34375 L 137.414062 28.34375 L 137.082031 33.707031 C 136.921875 36.21875 136.265625 37.679688 134.429688 37.679688 C 134.257812 37.683594 134.089844 37.660156 133.925781 37.609375 L 133.925781 36.449219 C 134.054688 36.472656 134.183594 36.488281 134.3125 36.492188 C 135.488281 36.492188 135.761719 35.296875 135.855469 33.660156 L 136.230469 27.175781 L 142.503906 27.175781 L 142.503906 37.617188 Z M 141.207031 37.617188 "/>
<path style=" stroke:none;fill-rule:nonzero;fill:rgb(10.980392%,10.980392%,10.980392%);fill-opacity:1;" d="M 145.300781 27.167969 L 146.59375 27.167969 L 146.59375 31.039062 L 149.136719 31.039062 C 151.089844 31.039062 152.480469 32.394531 152.480469 34.335938 C 152.480469 36.273438 151.105469 37.617188 149.152344 37.617188 L 145.300781 37.617188 Z M 148.8125 36.453125 C 150.304688 36.453125 151.148438 35.691406 151.148438 34.347656 C 151.148438 33 150.296875 32.222656 148.8125 32.222656 L 146.59375 32.222656 L 146.59375 36.453125 Z M 148.8125 36.453125 "/>
<path style=" stroke:none;fill-rule:nonzero;fill:rgb(10.980392%,10.980392%,10.980392%);fill-opacity:1;" d="M 161.742188 37.617188 L 161.742188 32.859375 L 156.039062 32.859375 L 156.039062 37.617188 L 154.742188 37.617188 L 154.742188 27.167969 L 156.039062 27.167969 L 156.039062 31.6875 L 161.742188 31.6875 L 161.742188 27.167969 L 163.039062 27.167969 L 163.039062 37.617188 Z M 161.742188 37.617188 "/>
<path style=" stroke:none;fill-rule:nonzero;fill:rgb(10.980392%,10.980392%,10.980392%);fill-opacity:1;" d="M 165.832031 27.167969 L 167.128906 27.167969 L 167.128906 31.039062 L 169.660156 31.039062 C 171.613281 31.039062 173.003906 32.394531 173.003906 34.335938 C 173.003906 36.273438 171.636719 37.617188 169.683594 37.617188 L 165.832031 37.617188 Z M 169.347656 36.453125 C 170.839844 36.453125 171.679688 35.691406 171.679688 34.347656 C 171.679688 33 170.832031 32.222656 169.347656 32.222656 L 167.128906 32.222656 L 167.128906 36.453125 Z M 174.476562 37.617188 L 174.476562 27.167969 L 175.773438 27.167969 L 175.773438 37.617188 Z M 174.476562 37.617188 "/>
<path style=" stroke:none;fill-rule:nonzero;fill:rgb(10.980392%,10.980392%,10.980392%);fill-opacity:1;" d="M 181.449219 32.359375 L 177.933594 27.167969 L 179.492188 27.167969 L 182.230469 31.324219 L 182.34375 31.324219 L 185.125 27.167969 L 186.601562 27.167969 L 183 32.414062 L 186.523438 37.617188 L 184.96875 37.617188 L 182.246094 33.496094 L 182.132812 33.496094 L 179.359375 37.617188 L 177.890625 37.617188 Z M 181.449219 32.359375 "/>
<path style=" stroke:none;fill-rule:nonzero;fill:rgb(10.980392%,10.980392%,10.980392%);fill-opacity:1;" d="M 66.996094 52.441406 L 66.996094 43.167969 L 63.644531 43.167969 L 63.644531 42.003906 L 71.640625 42.003906 L 71.640625 43.167969 L 68.289062 43.167969 L 68.289062 52.441406 Z M 66.996094 52.441406 "/>
<path style=" stroke:none;fill-rule:nonzero;fill:rgb(10.980392%,10.980392%,10.980392%);fill-opacity:1;" d="M 80.226562 52.441406 L 73.785156 52.441406 L 73.785156 41.992188 L 80.226562 41.992188 L 80.226562 43.15625 L 75.078125 43.15625 L 75.078125 46.507812 L 79.953125 46.507812 L 79.953125 47.671875 L 75.078125 47.671875 L 75.078125 51.277344 L 80.226562 51.277344 Z M 80.226562 52.441406 "/>
<path style=" stroke:none;fill-rule:nonzero;fill:rgb(10.980392%,10.980392%,10.980392%);fill-opacity:1;" d="M 85.597656 47.183594 L 82.082031 41.992188 L 83.644531 41.992188 L 86.386719 46.148438 L 86.496094 46.148438 L 89.28125 41.992188 L 90.753906 41.992188 L 87.15625 47.238281 L 90.675781 52.441406 L 89.121094 52.441406 L 86.398438 48.320312 L 86.285156 48.320312 L 83.511719 52.441406 L 82.039062 52.441406 Z M 85.597656 47.183594 "/>
<path style=" stroke:none;fill-rule:nonzero;fill:rgb(10.980392%,10.980392%,10.980392%);fill-opacity:1;" d="M 99.875 52.441406 L 99.875 47.683594 L 94.167969 47.683594 L 94.167969 52.441406 L 92.871094 52.441406 L 92.871094 41.992188 L 94.167969 41.992188 L 94.167969 46.507812 L 99.875 46.507812 L 99.875 41.992188 L 101.171875 41.992188 L 101.171875 52.441406 Z M 99.875 52.441406 "/>
<path style=" stroke:none;fill-rule:nonzero;fill:rgb(10.980392%,10.980392%,10.980392%);fill-opacity:1;" d="M 113.089844 47.207031 C 113.089844 50.542969 111.300781 52.679688 108.339844 52.679688 C 105.375 52.679688 103.5625 50.550781 103.5625 47.207031 C 103.5625 43.863281 105.398438 41.742188 108.339844 41.742188 C 111.277344 41.742188 113.089844 43.859375 113.089844 47.207031 Z M 104.894531 47.207031 C 104.894531 49.796875 106.175781 51.476562 108.339844 51.476562 C 110.5 51.476562 111.757812 49.796875 111.757812 47.207031 C 111.757812 44.617188 110.460938 42.945312 108.339844 42.945312 C 106.214844 42.945312 104.894531 44.59375 104.894531 47.207031 Z M 104.894531 47.207031 "/>
<path style=" stroke:none;fill-rule:nonzero;fill:rgb(10.980392%,10.980392%,10.980392%);fill-opacity:1;" d="M 121.644531 52.441406 L 121.644531 43.167969 L 117.855469 43.167969 L 117.527344 48.53125 C 117.367188 51.042969 116.714844 52.503906 114.878906 52.503906 C 114.707031 52.507812 114.535156 52.480469 114.371094 52.429688 L 114.371094 51.269531 C 114.5 51.296875 114.628906 51.3125 114.761719 51.3125 C 115.9375 51.3125 116.207031 50.121094 116.304688 48.484375 L 116.675781 42 L 122.949219 42 L 122.949219 52.441406 Z M 121.644531 52.441406 "/>
<path style=" stroke:none;fill-rule:nonzero;fill:rgb(10.980392%,10.980392%,10.980392%);fill-opacity:1;" d="M 134.871094 47.207031 C 134.871094 50.542969 133.085938 52.679688 130.117188 52.679688 C 127.148438 52.679688 125.34375 50.550781 125.34375 47.207031 C 125.34375 43.863281 127.179688 41.742188 130.117188 41.742188 C 133.054688 41.742188 134.871094 43.859375 134.871094 47.207031 Z M 126.671875 47.207031 C 126.671875 49.796875 127.957031 51.476562 130.117188 51.476562 C 132.277344 51.476562 133.535156 49.796875 133.535156 47.207031 C 133.535156 44.617188 132.242188 42.945312 130.117188 42.945312 C 127.996094 42.945312 126.671875 44.59375 126.671875 47.207031 Z M 126.671875 47.207031 "/>
<path style=" stroke:none;fill-rule:nonzero;fill:rgb(10.980392%,10.980392%,10.980392%);fill-opacity:1;" d="M 137.265625 52.441406 L 137.265625 41.992188 L 143.425781 41.992188 L 143.425781 43.179688 L 138.566406 43.179688 L 138.566406 52.441406 Z M 137.265625 52.441406 "/>
<path style=" stroke:none;fill-rule:nonzero;fill:rgb(10.980392%,10.980392%,10.980392%);fill-opacity:1;" d="M 152.632812 44.125 L 152.515625 44.125 L 146.898438 52.441406 L 145.613281 52.441406 L 145.613281 41.992188 L 146.898438 41.992188 L 146.898438 50.328125 L 147.011719 50.328125 L 152.632812 41.992188 L 153.914062 41.992188 L 153.914062 52.441406 L 152.632812 52.441406 Z M 152.632812 44.125 "/>
<path style=" stroke:none;fill-rule:nonzero;fill:rgb(10.980392%,10.980392%,10.980392%);fill-opacity:1;" d="M 163.722656 44.125 L 163.609375 44.125 L 157.988281 52.441406 L 156.707031 52.441406 L 156.707031 41.992188 L 157.988281 41.992188 L 157.988281 50.328125 L 158.105469 50.328125 L 163.722656 41.992188 L 165.003906 41.992188 L 165.003906 52.441406 L 163.722656 52.441406 Z M 159.617188 38.871094 C 159.617188 39.621094 160.21875 40.226562 160.964844 40.226562 C 161.710938 40.226562 162.3125 39.621094 162.3125 38.871094 L 163.433594 38.871094 C 163.433594 40.21875 162.441406 41.027344 160.957031 41.027344 C 159.472656 41.027344 158.496094 40.21875 158.496094 38.871094 Z M 159.617188 38.871094 "/>
</g>
</svg>
