<?xml version="1.0" encoding="UTF-8"?>
<svg xmlns="http://www.w3.org/2000/svg" xmlns:xlink="http://www.w3.org/1999/xlink" width="187px" height="64px" viewBox="0 0 198 64" version="1.1">
<g id="surface1">
<path style=" stroke:none;fill-rule:nonzero;fill:rgb(95.294118%,36.078431%,15.294118%);fill-opacity:1;" d="M 0.484375 0.429688 L 197.519531 0.429688 L 197.519531 63.570312 L 0.484375 63.570312 Z M 0.484375 0.429688 "/>
<path style=" stroke:none;fill-rule:nonzero;fill:rgb(10.980392%,10.980392%,10.980392%);fill-opacity:1;" d="M 197.867188 63.996094 L 0.132812 63.996094 L 0.132812 0 L 197.867188 0 Z M 0.832031 63.125 L 197.167969 63.125 L 197.167969 0.859375 L 0.832031 0.859375 Z M 0.832031 63.125 "/>
<path style=" stroke:none;fill-rule:nonzero;fill:rgb(10.980392%,10.980392%,10.980392%);fill-opacity:1;" d="M 56.476562 5.4375 L 57.449219 5.4375 L 57.449219 58.558594 L 56.476562 58.558594 Z M 56.476562 5.4375 "/>
<path style=" stroke:none;fill-rule:nonzero;fill:rgb(10.980392%,10.980392%,10.980392%);fill-opacity:1;" d="M 47.660156 41.4375 L 47.660156 39.175781 L 47.3125 18.332031 C 47.636719 14.933594 47.566406 11.503906 47.105469 8.121094 C 47.105469 8.121094 46.78125 22.140625 39.175781 30.847656 C 38.394531 29 36.542969 27.847656 34.546875 27.964844 C 34.546875 27.964844 40.886719 34.21875 35.246094 44.242188 C 29.609375 54.269531 19.253906 54.675781 19.253906 54.675781 C 19.253906 54.675781 41.296875 57.222656 40.148438 34.550781 C 40.148438 34.550781 44.953125 30.796875 46.804688 21.6875 L 46.511719 39.363281 L 46.511719 42.617188 L 48.078125 42.617188 L 48.078125 46.152344 L 46.902344 47.316406 L 45.734375 46.152344 L 45.734375 43.011719 L 44.5625 43.011719 L 44.5625 46.546875 L 46.902344 48.902344 L 49.25 46.546875 L 49.25 41.441406 Z M 47.660156 41.4375 "/>
<path style=" stroke:none;fill-rule:nonzero;fill:rgb(10.980392%,10.980392%,10.980392%);fill-opacity:1;" d="M 30.636719 38.351562 C 30.636719 38.351562 33.578125 29.539062 24.316406 28.496094 C 24.316406 28.496094 32.214844 32.984375 25.023438 42.84375 C 25.023438 42.84375 21.046875 48.261719 15.867188 52.316406 C 15.867188 52.316406 13.6875 35.667969 18.761719 28.984375 C 18.761719 28.984375 13.582031 24.292969 16.738281 16.316406 C 16.738281 16.316406 10.488281 22.632812 16.410156 29.3125 C 16.410156 29.3125 9.542969 32.601562 13.359375 57.136719 C 13.359375 57.136719 27.3125 50.125 30.636719 38.351562 Z M 30.636719 38.351562 "/>
<path style=" stroke:none;fill-rule:nonzero;fill:rgb(10.980392%,10.980392%,10.980392%);fill-opacity:1;" d="M 34.558594 20.210938 C 34.476562 20.238281 33.664062 20.464844 33.664062 20.5 L 33.664062 21.203125 L 33.703125 21.859375 C 34.136719 22.011719 34.59375 22.082031 35.050781 22.058594 C 35.503906 22.035156 35.945312 21.925781 36.351562 21.726562 C 37.15625 21.347656 37.773438 20.660156 38.070312 19.816406 C 38.355469 19.007812 38.308594 18.113281 37.945312 17.335938 C 37.597656 16.613281 36.992188 16.050781 36.246094 15.765625 L 36.296875 15.828125 C 36.320312 15.867188 36.351562 15.898438 36.382812 15.929688 C 36.792969 16.324219 37.082031 16.828125 37.21875 17.382812 C 37.324219 17.894531 37.195312 18.429688 36.863281 18.835938 C 36.320312 19.519531 35.390625 19.917969 34.558594 20.210938 Z M 34.558594 20.210938 "/>
<path style=" stroke:none;fill-rule:nonzero;fill:rgb(10.980392%,10.980392%,10.980392%);fill-opacity:1;" d="M 24.316406 17.011719 C 24.328125 16.984375 24.34375 16.960938 24.359375 16.9375 C 23.679688 17.359375 23.1875 18.027344 22.988281 18.804688 C 22.773438 19.636719 22.894531 20.523438 23.332031 21.265625 C 23.785156 22.03125 24.519531 22.589844 25.378906 22.8125 C 25.816406 22.925781 26.269531 22.949219 26.71875 22.886719 C 27.171875 22.820312 27.609375 22.667969 28.003906 22.433594 L 27.917969 21.785156 L 27.792969 21.09375 C 27.792969 21.066406 26.949219 21.003906 26.859375 20.992188 C 25.992188 20.863281 25.015625 20.644531 24.328125 20.054688 C 23.925781 19.71875 23.699219 19.222656 23.703125 18.699219 C 23.734375 18.132812 23.925781 17.585938 24.257812 17.125 C 24.28125 17.085938 24.296875 17.050781 24.316406 17.011719 Z M 24.316406 17.011719 "/>
<path style=" stroke:none;fill-rule:nonzero;fill:rgb(10.980392%,10.980392%,10.980392%);fill-opacity:1;" d="M 31.28125 25.097656 L 31.375 24.957031 C 31.984375 12.023438 40.265625 6.867188 40.265625 6.867188 C 30.933594 9.800781 30.648438 18.90625 30.648438 18.90625 C 28.777344 11.144531 21.339844 11.832031 21.339844 11.832031 C 21.339844 11.832031 27.878906 13.058594 31.28125 25.097656 Z M 31.28125 25.097656 "/>
<path style=" stroke:none;fill-rule:nonzero;fill:rgb(10.980392%,10.980392%,10.980392%);fill-opacity:1;" d="M 67.226562 22.789062 L 63.394531 12.34375 L 64.753906 12.34375 L 67.808594 21.101562 L 67.921875 21.101562 L 70.976562 12.34375 L 72.339844 12.34375 L 68.507812 22.789062 Z M 67.226562 22.789062 "/>
<path style=" stroke:none;fill-rule:nonzero;fill:rgb(10.980392%,10.980392%,10.980392%);fill-opacity:1;" d="M 80.601562 22.789062 L 74.160156 22.789062 L 74.160156 12.34375 L 80.601562 12.34375 L 80.601562 13.507812 L 75.457031 13.507812 L 75.457031 16.859375 L 80.335938 16.859375 L 80.335938 18.023438 L 75.457031 18.023438 L 75.457031 21.613281 L 80.601562 21.613281 Z M 80.601562 22.789062 "/>
<path style=" stroke:none;fill-rule:nonzero;fill:rgb(10.980392%,10.980392%,10.980392%);fill-opacity:1;" d="M 84.246094 22.789062 L 82.949219 22.789062 L 82.949219 12.34375 L 86.917969 12.34375 C 88.917969 12.34375 90.230469 13.574219 90.230469 15.453125 C 90.230469 16.910156 89.445312 18.039062 88.140625 18.453125 L 90.546875 22.789062 L 89.027344 22.789062 L 86.800781 18.65625 L 84.246094 18.65625 Z M 84.246094 17.5 L 86.800781 17.5 C 88.136719 17.5 88.890625 16.78125 88.890625 15.5 C 88.890625 14.214844 88.082031 13.5 86.742188 13.5 L 84.246094 13.5 Z M 84.246094 17.5 "/>
<path style=" stroke:none;fill-rule:nonzero;fill:rgb(10.980392%,10.980392%,10.980392%);fill-opacity:1;" d="M 95.285156 22.789062 L 95.285156 13.515625 L 91.933594 13.515625 L 91.933594 12.355469 L 99.933594 12.355469 L 99.933594 13.515625 L 96.582031 13.515625 L 96.582031 22.789062 Z M 95.285156 22.789062 "/>
<path style=" stroke:none;fill-rule:nonzero;fill:rgb(10.980392%,10.980392%,10.980392%);fill-opacity:1;" d="M 101.933594 22.789062 L 101.933594 12.34375 L 103.230469 12.34375 L 103.230469 22.789062 Z M 101.933594 22.789062 "/>
<path style=" stroke:none;fill-rule:nonzero;fill:rgb(10.980392%,10.980392%,10.980392%);fill-opacity:1;" d="M 105.878906 22.789062 L 105.878906 12.34375 L 107.183594 12.34375 L 107.183594 17.417969 L 107.296875 17.417969 L 111.847656 12.34375 L 113.476562 12.34375 L 109.320312 16.851562 L 113.859375 22.789062 L 112.183594 22.789062 L 108.421875 17.757812 L 107.179688 19.140625 L 107.179688 22.789062 Z M 105.878906 22.789062 "/>
<path style=" stroke:none;fill-rule:nonzero;fill:rgb(10.980392%,10.980392%,10.980392%);fill-opacity:1;" d="M 121.308594 19.800781 L 117.175781 19.800781 L 116.128906 22.789062 L 114.769531 22.789062 L 118.601562 12.34375 L 119.882812 12.34375 L 123.714844 22.789062 L 122.351562 22.789062 Z M 117.546875 18.691406 L 120.917969 18.691406 L 119.289062 14.042969 L 119.175781 14.042969 Z M 117.546875 18.691406 "/>
<path style=" stroke:none;fill-rule:nonzero;fill:rgb(10.980392%,10.980392%,10.980392%);fill-opacity:1;" d="M 131.84375 22.789062 L 125.535156 22.789062 L 125.535156 12.34375 L 126.832031 12.34375 L 126.832031 21.613281 L 131.84375 21.613281 Z M 131.84375 22.789062 "/>
<path style=" stroke:none;fill-rule:nonzero;fill:rgb(10.980392%,10.980392%,10.980392%);fill-opacity:1;" d="M 64.21875 37.613281 L 64.21875 27.167969 L 68.199219 27.167969 C 70.105469 27.167969 71.273438 28.175781 71.273438 29.78125 C 71.273438 30.863281 70.527344 31.796875 69.480469 32.03125 L 69.480469 32.148438 C 70.898438 32.328125 71.792969 33.3125 71.792969 34.6875 C 71.792969 36.527344 70.484375 37.621094 68.269531 37.621094 Z M 65.535156 31.667969 L 67.609375 31.667969 C 69.179688 31.667969 69.976562 31.105469 69.976562 29.996094 C 69.976562 28.933594 69.226562 28.316406 67.9375 28.316406 L 65.535156 28.316406 Z M 68.097656 36.460938 C 69.660156 36.460938 70.480469 35.824219 70.480469 34.617188 C 70.480469 33.40625 69.632812 32.789062 67.976562 32.789062 L 65.535156 32.789062 L 65.535156 36.460938 Z M 68.097656 36.460938 "/>
<path style=" stroke:none;fill-rule:nonzero;fill:rgb(10.980392%,10.980392%,10.980392%);fill-opacity:1;" d="M 79.628906 34.621094 L 75.496094 34.621094 L 74.449219 37.613281 L 73.089844 37.613281 L 76.921875 27.167969 L 78.203125 27.167969 L 82.035156 37.613281 L 80.671875 37.613281 Z M 75.867188 33.515625 L 79.238281 33.515625 L 77.609375 28.863281 L 77.492188 28.863281 Z M 75.867188 33.515625 "/>
<path style=" stroke:none;fill-rule:nonzero;fill:rgb(10.980392%,10.980392%,10.980392%);fill-opacity:1;" d="M 85.203125 33.9375 C 85.203125 35.515625 86.230469 36.65625 88.035156 36.65625 C 89.835938 36.65625 90.863281 35.515625 90.863281 33.9375 L 90.863281 27.167969 L 92.144531 27.167969 L 92.144531 34.023438 C 92.144531 36.253906 90.59375 37.855469 88.015625 37.855469 C 85.4375 37.855469 83.890625 36.253906 83.890625 34.023438 L 83.890625 27.167969 L 85.203125 27.167969 Z M 85.203125 33.9375 "/>
<path style=" stroke:none;fill-rule:nonzero;fill:rgb(10.980392%,10.980392%,10.980392%);fill-opacity:1;" d="M 66.921875 52.421875 L 66.921875 43.152344 L 63.574219 43.152344 L 63.574219 41.992188 L 71.566406 41.992188 L 71.566406 43.152344 L 68.222656 43.152344 L 68.222656 52.421875 Z M 66.921875 52.421875 "/>
<path style=" stroke:none;fill-rule:nonzero;fill:rgb(10.980392%,10.980392%,10.980392%);fill-opacity:1;" d="M 80.011719 52.421875 L 73.570312 52.421875 L 73.570312 41.980469 L 80.011719 41.980469 L 80.011719 43.140625 L 74.867188 43.140625 L 74.867188 46.492188 L 79.742188 46.492188 L 79.742188 47.65625 L 74.867188 47.65625 L 74.867188 51.261719 L 80.011719 51.261719 Z M 80.011719 52.421875 "/>
<path style=" stroke:none;fill-rule:nonzero;fill:rgb(10.980392%,10.980392%,10.980392%);fill-opacity:1;" d="M 81.953125 47.214844 C 81.953125 43.84375 83.710938 41.746094 86.535156 41.746094 C 88.726562 41.746094 90.429688 43.125 90.742188 45.136719 L 89.421875 45.136719 C 89.101562 43.808594 87.890625 42.890625 86.53125 42.945312 C 84.535156 42.945312 83.28125 44.597656 83.28125 47.214844 C 83.28125 49.835938 84.535156 51.480469 86.535156 51.480469 C 87.980469 51.480469 89.085938 50.734375 89.425781 49.523438 L 90.746094 49.523438 C 90.402344 51.441406 88.757812 52.679688 86.546875 52.679688 C 83.71875 52.679688 81.953125 50.582031 81.953125 47.214844 Z M 81.953125 47.214844 "/>
<path style=" stroke:none;fill-rule:nonzero;fill:rgb(10.980392%,10.980392%,10.980392%);fill-opacity:1;" d="M 99.917969 52.421875 L 99.917969 47.667969 L 94.210938 47.667969 L 94.210938 52.421875 L 92.914062 52.421875 L 92.914062 41.980469 L 94.210938 41.980469 L 94.210938 46.496094 L 99.917969 46.496094 L 99.917969 41.980469 L 101.214844 41.980469 L 101.214844 52.421875 Z M 99.917969 52.421875 "/>
<path style=" stroke:none;fill-rule:nonzero;fill:rgb(10.980392%,10.980392%,10.980392%);fill-opacity:1;" d="M 103.863281 52.421875 L 103.863281 41.980469 L 105.125 41.980469 L 110.765625 50.117188 L 110.878906 50.117188 L 110.878906 41.980469 L 112.160156 41.980469 L 112.160156 52.421875 L 110.902344 52.421875 L 105.261719 44.324219 L 105.160156 44.324219 L 105.160156 52.421875 Z M 103.863281 52.421875 "/>
<path style=" stroke:none;fill-rule:nonzero;fill:rgb(10.980392%,10.980392%,10.980392%);fill-opacity:1;" d="M 123.9375 47.210938 C 123.9375 50.546875 122.152344 52.679688 119.183594 52.679688 C 116.21875 52.679688 114.414062 50.554688 114.414062 47.210938 C 114.414062 43.867188 116.25 41.746094 119.191406 41.746094 C 122.128906 41.746094 123.9375 43.859375 123.9375 47.210938 Z M 115.738281 47.210938 C 115.738281 49.800781 117.023438 51.480469 119.183594 51.480469 C 121.34375 51.480469 122.601562 49.800781 122.601562 47.210938 C 122.601562 44.621094 121.308594 42.945312 119.183594 42.945312 C 117.0625 42.945312 115.738281 44.597656 115.738281 47.210938 Z M 115.738281 47.210938 "/>
<path style=" stroke:none;fill-rule:nonzero;fill:rgb(10.980392%,10.980392%,10.980392%);fill-opacity:1;" d="M 132.492188 52.421875 L 126.183594 52.421875 L 126.183594 41.980469 L 127.480469 41.980469 L 127.480469 51.261719 L 132.492188 51.261719 Z M 132.492188 52.421875 "/>
<path style=" stroke:none;fill-rule:nonzero;fill:rgb(10.980392%,10.980392%,10.980392%);fill-opacity:1;" d="M 143.6875 47.210938 C 143.6875 50.546875 141.902344 52.679688 138.933594 52.679688 C 135.964844 52.679688 134.160156 50.554688 134.160156 47.210938 C 134.160156 43.867188 135.996094 41.746094 138.933594 41.746094 C 141.871094 41.746094 143.6875 43.859375 143.6875 47.210938 Z M 135.488281 47.210938 C 135.488281 49.800781 136.773438 51.480469 138.933594 51.480469 C 141.09375 51.480469 142.351562 49.800781 142.351562 47.210938 C 142.351562 44.621094 141.054688 42.945312 138.933594 42.945312 C 136.808594 42.945312 135.488281 44.597656 135.488281 47.210938 Z M 135.488281 47.210938 "/>
<path style=" stroke:none;fill-rule:nonzero;fill:rgb(10.980392%,10.980392%,10.980392%);fill-opacity:1;" d="M 150.238281 52.679688 C 147.367188 52.679688 145.53125 50.554688 145.53125 47.210938 C 145.53125 43.867188 147.394531 41.746094 150.238281 41.746094 C 152.554688 41.746094 154.214844 43.035156 154.578125 45.101562 L 153.257812 45.101562 C 152.8125 43.691406 151.769531 42.945312 150.226562 42.945312 C 148.167969 42.945312 146.851562 44.613281 146.851562 47.210938 C 146.851562 49.808594 148.144531 51.480469 150.238281 51.480469 C 152.09375 51.480469 153.355469 50.285156 153.355469 48.519531 L 153.355469 48.265625 L 150.441406 48.265625 L 150.441406 47.125 L 154.65625 47.125 L 154.65625 48.398438 C 154.65625 50.96875 152.898438 52.679688 150.238281 52.679688 Z M 150.238281 52.679688 "/>
<path style=" stroke:none;fill-rule:nonzero;fill:rgb(10.980392%,10.980392%,10.980392%);fill-opacity:1;" d="M 156.933594 52.421875 L 156.933594 41.980469 L 158.230469 41.980469 L 158.230469 52.421875 Z M 156.933594 52.421875 "/>
<path style=" stroke:none;fill-rule:nonzero;fill:rgb(10.980392%,10.980392%,10.980392%);fill-opacity:1;" d="M 167.34375 52.421875 L 160.890625 52.421875 L 160.890625 41.980469 L 167.34375 41.980469 L 167.34375 43.140625 L 162.1875 43.140625 L 162.1875 46.492188 L 167.054688 46.492188 L 167.054688 47.65625 L 162.1875 47.65625 L 162.1875 51.261719 L 167.34375 51.261719 Z M 167.34375 52.421875 "/>
<path style=" stroke:none;fill-rule:nonzero;fill:rgb(10.980392%,10.980392%,10.980392%);fill-opacity:1;" d="M 169.679688 52.421875 L 169.679688 41.980469 L 170.941406 41.980469 L 176.578125 50.117188 L 176.695312 50.117188 L 176.695312 41.980469 L 177.976562 41.980469 L 177.976562 52.421875 L 176.714844 52.421875 L 171.078125 44.324219 L 170.960938 44.324219 L 170.960938 52.421875 Z M 169.679688 52.421875 "/>
</g>
</svg>
