<?xml version="1.0" encoding="UTF-8"?>
<svg xmlns="http://www.w3.org/2000/svg" xmlns:xlink="http://www.w3.org/1999/xlink" width="187px" height="64px" viewBox="0 0 198 64" version="1.1">
<g id="surface1">
<path style=" stroke:none;fill-rule:nonzero;fill:rgb(95.294118%,36.078431%,15.294118%);fill-opacity:1;" d="M 0.484375 0.429688 L 197.519531 0.429688 L 197.519531 63.570312 L 0.484375 63.570312 Z M 0.484375 0.429688 "/>
<path style=" stroke:none;fill-rule:nonzero;fill:rgb(10.980392%,10.980392%,10.980392%);fill-opacity:1;" d="M 197.867188 64 L 0.132812 64 L 0.132812 0 L 197.867188 0 Z M 0.832031 63.128906 L 197.167969 63.128906 L 197.167969 0.859375 L 0.832031 0.859375 Z M 0.832031 63.128906 "/>
<path style=" stroke:none;fill-rule:nonzero;fill:rgb(10.980392%,10.980392%,10.980392%);fill-opacity:1;" d="M 56.476562 5.4375 L 57.449219 5.4375 L 57.449219 58.558594 L 56.476562 58.558594 Z M 56.476562 5.4375 "/>
<path style=" stroke:none;fill-rule:nonzero;fill:rgb(10.980392%,10.980392%,10.980392%);fill-opacity:1;" d="M 47.660156 41.425781 L 47.660156 39.167969 L 47.3125 18.332031 C 47.636719 14.933594 47.566406 11.503906 47.105469 8.121094 C 47.105469 8.121094 46.78125 22.144531 39.175781 30.847656 C 38.394531 29 36.542969 27.847656 34.546875 27.964844 C 34.546875 27.964844 40.886719 34.21875 35.246094 44.242188 C 29.609375 54.269531 19.257812 54.671875 19.257812 54.671875 C 19.257812 54.671875 41.296875 57.21875 40.152344 34.546875 C 40.152344 34.546875 44.957031 30.792969 46.804688 21.683594 L 46.515625 39.359375 L 46.515625 42.617188 L 48.082031 42.617188 L 48.082031 46.148438 L 46.90625 47.328125 L 45.734375 46.148438 L 45.734375 43.011719 L 44.5625 43.011719 L 44.5625 46.546875 L 46.90625 48.898438 L 49.253906 46.546875 L 49.253906 41.425781 Z M 47.660156 41.425781 "/>
<path style=" stroke:none;fill-rule:nonzero;fill:rgb(10.980392%,10.980392%,10.980392%);fill-opacity:1;" d="M 30.636719 38.355469 C 30.636719 38.355469 33.578125 29.542969 24.316406 28.496094 C 24.316406 28.496094 32.214844 32.984375 25.023438 42.84375 C 25.023438 42.84375 21.046875 48.265625 15.867188 52.316406 C 15.867188 52.316406 13.6875 35.667969 18.761719 28.988281 C 18.761719 28.988281 13.582031 24.296875 16.738281 16.316406 C 16.738281 16.316406 10.488281 22.632812 16.410156 29.316406 C 16.410156 29.316406 9.542969 32.601562 13.359375 57.136719 C 13.359375 57.136719 27.3125 50.125 30.636719 38.355469 Z M 30.636719 38.355469 "/>
<path style=" stroke:none;fill-rule:nonzero;fill:rgb(10.980392%,10.980392%,10.980392%);fill-opacity:1;" d="M 34.558594 20.207031 C 34.476562 20.238281 33.664062 20.460938 33.664062 20.5 L 33.664062 21.203125 L 33.703125 21.851562 C 34.570312 22.164062 35.519531 22.117188 36.351562 21.726562 C 37.152344 21.339844 37.773438 20.65625 38.070312 19.816406 C 38.355469 19.003906 38.3125 18.109375 37.945312 17.332031 C 37.597656 16.609375 36.992188 16.046875 36.246094 15.761719 L 36.296875 15.824219 C 36.320312 15.859375 36.351562 15.894531 36.382812 15.921875 C 36.792969 16.316406 37.082031 16.820312 37.21875 17.375 C 37.324219 17.890625 37.195312 18.421875 36.863281 18.828125 C 36.320312 19.519531 35.390625 19.917969 34.558594 20.207031 Z M 34.558594 20.207031 "/>
<path style=" stroke:none;fill-rule:nonzero;fill:rgb(10.980392%,10.980392%,10.980392%);fill-opacity:1;" d="M 24.316406 17.011719 C 24.328125 16.984375 24.34375 16.960938 24.359375 16.9375 C 23.679688 17.359375 23.191406 18.027344 22.988281 18.804688 C 22.773438 19.636719 22.894531 20.523438 23.332031 21.265625 C 23.785156 22.03125 24.519531 22.589844 25.378906 22.8125 C 25.816406 22.925781 26.269531 22.953125 26.71875 22.886719 C 27.171875 22.824219 27.609375 22.667969 28.003906 22.433594 L 27.917969 21.785156 L 27.792969 21.09375 C 27.792969 21.070312 26.949219 21.003906 26.859375 20.992188 C 25.992188 20.863281 25.015625 20.648438 24.328125 20.054688 C 23.925781 19.71875 23.699219 19.222656 23.703125 18.699219 C 23.734375 18.132812 23.925781 17.585938 24.257812 17.125 C 24.28125 17.085938 24.300781 17.050781 24.316406 17.011719 Z M 24.316406 17.011719 "/>
<path style=" stroke:none;fill-rule:nonzero;fill:rgb(10.980392%,10.980392%,10.980392%);fill-opacity:1;" d="M 31.28125 25.097656 L 31.375 24.953125 C 31.984375 12.019531 40.265625 6.863281 40.265625 6.863281 C 30.933594 9.796875 30.648438 18.898438 30.648438 18.898438 C 28.777344 11.136719 21.339844 11.824219 21.339844 11.824219 C 21.339844 11.824219 27.878906 13.058594 31.28125 25.097656 Z M 31.28125 25.097656 "/>
<path style=" stroke:none;fill-rule:nonzero;fill:rgb(10.980392%,10.980392%,10.980392%);fill-opacity:1;" d="M 64.273438 22.777344 L 64.273438 12.332031 L 68.246094 12.332031 C 70.15625 12.332031 71.324219 13.339844 71.324219 14.949219 C 71.324219 16.03125 70.578125 16.964844 69.53125 17.203125 L 69.53125 17.300781 C 70.949219 17.484375 71.84375 18.464844 71.84375 19.839844 C 71.84375 21.679688 70.535156 22.773438 68.324219 22.773438 Z M 65.570312 16.835938 L 67.640625 16.835938 C 69.214844 16.835938 70.011719 16.269531 70.011719 15.160156 C 70.011719 14.097656 69.261719 13.484375 67.988281 13.484375 L 65.582031 13.484375 Z M 68.136719 21.625 C 69.703125 21.625 70.523438 20.988281 70.523438 19.78125 C 70.523438 18.570312 69.671875 17.953125 68.015625 17.953125 L 65.574219 17.953125 L 65.574219 21.625 Z M 68.136719 21.625 "/>
<path style=" stroke:none;fill-rule:nonzero;fill:rgb(10.980392%,10.980392%,10.980392%);fill-opacity:1;" d="M 80.546875 22.777344 L 74.109375 22.777344 L 74.109375 12.332031 L 80.546875 12.332031 L 80.546875 13.496094 L 75.40625 13.496094 L 75.40625 16.847656 L 80.285156 16.847656 L 80.285156 18.011719 L 75.40625 18.011719 L 75.40625 21.601562 L 80.546875 21.601562 Z M 80.546875 22.777344 "/>
<path style=" stroke:none;fill-rule:nonzero;fill:rgb(10.980392%,10.980392%,10.980392%);fill-opacity:1;" d="M 86.964844 12.332031 C 88.933594 12.332031 90.296875 13.722656 90.296875 15.714844 C 90.296875 17.703125 88.902344 19.042969 86.953125 19.042969 L 84.347656 19.042969 L 84.347656 22.773438 L 83.054688 22.773438 L 83.054688 12.332031 Z M 84.335938 17.882812 L 86.625 17.882812 C 88.101562 17.882812 88.960938 17.085938 88.960938 15.703125 C 88.960938 14.269531 88.132812 13.480469 86.625 13.480469 L 84.335938 13.480469 Z M 84.335938 17.882812 "/>
<path style=" stroke:none;fill-rule:nonzero;fill:rgb(10.980392%,10.980392%,10.980392%);fill-opacity:1;" d="M 95.253906 22.777344 L 95.253906 13.503906 L 91.90625 13.503906 L 91.90625 12.34375 L 99.902344 12.34375 L 99.902344 13.503906 L 96.550781 13.503906 L 96.550781 22.777344 Z M 95.253906 22.777344 "/>
<path style=" stroke:none;fill-rule:nonzero;fill:rgb(10.980392%,10.980392%,10.980392%);fill-opacity:1;" d="M 109.0625 14.464844 L 108.949219 14.464844 L 103.332031 22.777344 L 102.046875 22.777344 L 102.046875 12.332031 L 103.332031 12.332031 L 103.332031 20.667969 L 103.445312 20.667969 L 109.0625 12.332031 L 110.34375 12.332031 L 110.34375 22.777344 L 109.0625 22.777344 Z M 109.0625 14.464844 "/>
<path style=" stroke:none;fill-rule:nonzero;fill:rgb(10.980392%,10.980392%,10.980392%);fill-opacity:1;" d="M 114.738281 16.921875 L 119.101562 12.332031 L 120.730469 12.332031 L 115.859375 17.363281 L 121.152344 22.777344 L 119.441406 22.777344 L 114.746094 17.964844 L 114.457031 17.964844 L 114.457031 22.777344 L 113.160156 22.777344 L 113.160156 12.332031 L 114.457031 12.332031 L 114.457031 16.921875 Z M 114.738281 16.921875 "/>
<path style=" stroke:none;fill-rule:nonzero;fill:rgb(10.980392%,10.980392%,10.980392%);fill-opacity:1;" d="M 128.746094 19.785156 L 124.613281 19.785156 L 123.570312 22.777344 L 122.207031 22.777344 L 126.039062 12.332031 L 127.320312 12.332031 L 131.152344 22.777344 L 129.789062 22.777344 Z M 124.988281 18.679688 L 128.355469 18.679688 L 126.730469 14.027344 L 126.613281 14.027344 Z M 124.988281 18.679688 "/>
<path style=" stroke:none;fill-rule:nonzero;fill:rgb(10.980392%,10.980392%,10.980392%);fill-opacity:1;" d="M 139.289062 22.777344 L 139.289062 13.503906 L 135.496094 13.503906 L 135.164062 18.867188 C 135.003906 21.378906 134.351562 22.839844 132.515625 22.839844 C 132.34375 22.84375 132.171875 22.820312 132.007812 22.769531 L 132.007812 21.605469 C 132.136719 21.632812 132.269531 21.644531 132.398438 21.644531 C 133.574219 21.644531 133.847656 20.453125 133.941406 18.816406 L 134.3125 12.332031 L 140.589844 12.332031 L 140.589844 22.777344 Z M 139.289062 22.777344 "/>
<path style=" stroke:none;fill-rule:nonzero;fill:rgb(10.980392%,10.980392%,10.980392%);fill-opacity:1;" d="M 143.382812 12.332031 L 144.679688 12.332031 L 144.679688 16.203125 L 147.222656 16.203125 C 149.171875 16.203125 150.5625 17.558594 150.5625 19.5 C 150.5625 21.4375 149.1875 22.777344 147.234375 22.777344 L 143.382812 22.777344 Z M 146.894531 21.605469 C 148.386719 21.605469 149.230469 20.84375 149.230469 19.5 C 149.230469 18.152344 148.378906 17.375 146.894531 17.375 L 144.679688 17.375 L 144.679688 21.605469 Z M 146.894531 21.605469 "/>
<path style=" stroke:none;fill-rule:nonzero;fill:rgb(10.980392%,10.980392%,10.980392%);fill-opacity:1;" d="M 68.054688 37.601562 L 64.273438 37.601562 L 64.273438 27.15625 L 70.347656 27.15625 L 70.347656 28.316406 L 65.570312 28.316406 L 65.570312 31.304688 L 68.039062 31.304688 C 69.992188 31.304688 71.378906 32.601562 71.378906 34.453125 C 71.378906 36.304688 70.003906 37.601562 68.054688 37.601562 Z M 67.714844 36.4375 C 69.203125 36.4375 70.046875 35.738281 70.046875 34.476562 C 70.046875 33.214844 69.199219 32.503906 67.714844 32.503906 L 65.570312 32.503906 L 65.570312 36.425781 Z M 67.714844 36.4375 "/>
<path style=" stroke:none;fill-rule:nonzero;fill:rgb(10.980392%,10.980392%,10.980392%);fill-opacity:1;" d="M 74.089844 37.578125 L 74.089844 36.414062 C 74.277344 36.457031 74.472656 36.476562 74.667969 36.472656 C 75.445312 36.472656 75.957031 36.148438 76.367188 35.378906 L 72.8125 27.15625 L 74.210938 27.15625 L 77 33.925781 L 77.113281 33.925781 L 79.835938 27.15625 L 81.183594 27.15625 L 78.003906 34.609375 C 77.160156 36.585938 76.433594 37.675781 74.683594 37.675781 C 74.480469 37.683594 74.277344 37.652344 74.089844 37.578125 Z M 74.089844 37.578125 "/>
<path style=" stroke:none;fill-rule:nonzero;fill:rgb(10.980392%,10.980392%,10.980392%);fill-opacity:1;" d="M 83.230469 39.660156 L 82.019531 39.660156 L 82.019531 36.425781 L 82.789062 36.425781 C 83.546875 36.023438 83.828125 35.09375 83.90625 33.726562 L 84.300781 27.15625 L 90.734375 27.15625 L 90.734375 36.425781 L 92.03125 36.425781 L 92.03125 39.660156 L 90.828125 39.660156 L 90.828125 37.601562 L 83.230469 37.601562 Z M 84.402344 36.339844 L 84.402344 36.425781 L 89.445312 36.425781 L 89.445312 28.328125 L 85.46875 28.328125 L 85.128906 33.753906 C 85.058594 34.9375 84.914062 35.726562 84.402344 36.339844 Z M 84.402344 36.339844 "/>
<path style=" stroke:none;fill-rule:nonzero;fill:rgb(10.980392%,10.980392%,10.980392%);fill-opacity:1;" d="M 93.941406 37.601562 L 93.941406 27.15625 L 95.234375 27.15625 L 95.234375 37.601562 Z M 93.941406 37.601562 "/>
<path style=" stroke:none;fill-rule:nonzero;fill:rgb(10.980392%,10.980392%,10.980392%);fill-opacity:1;" d="M 98.03125 37.601562 L 98.03125 27.15625 L 102.003906 27.15625 C 103.914062 27.15625 105.082031 28.164062 105.082031 29.769531 C 105.082031 30.851562 104.335938 31.785156 103.289062 32.019531 L 103.289062 32.136719 C 104.707031 32.316406 105.601562 33.300781 105.601562 34.675781 C 105.601562 36.515625 104.289062 37.609375 102.078125 37.609375 Z M 99.324219 31.65625 L 101.398438 31.65625 C 102.96875 31.65625 103.769531 31.09375 103.769531 29.984375 C 103.769531 28.921875 103.023438 28.304688 101.730469 28.304688 L 99.324219 28.304688 Z M 101.890625 36.449219 C 103.453125 36.449219 104.273438 35.8125 104.273438 34.605469 C 104.273438 33.394531 103.425781 32.777344 101.765625 32.777344 L 99.324219 32.777344 L 99.324219 36.449219 Z M 101.890625 36.449219 "/>
<path style=" stroke:none;fill-rule:nonzero;fill:rgb(10.980392%,10.980392%,10.980392%);fill-opacity:1;" d="M 114.308594 37.601562 L 107.867188 37.601562 L 107.867188 27.15625 L 114.308594 27.15625 L 114.308594 28.316406 L 109.164062 28.316406 L 109.164062 31.667969 L 114.039062 31.667969 L 114.039062 32.832031 L 109.164062 32.832031 L 109.164062 36.425781 L 114.308594 36.425781 Z M 114.308594 37.601562 "/>
<path style=" stroke:none;fill-rule:nonzero;fill:rgb(10.980392%,10.980392%,10.980392%);fill-opacity:1;" d="M 122.96875 37.601562 L 122.96875 28.328125 L 119.175781 28.328125 L 118.84375 33.691406 C 118.6875 36.203125 118.03125 37.664062 116.195312 37.664062 C 116.023438 37.667969 115.851562 37.644531 115.691406 37.59375 L 115.691406 36.429688 C 115.816406 36.457031 115.949219 36.472656 116.078125 36.472656 C 117.253906 36.472656 117.523438 35.277344 117.621094 33.644531 L 117.996094 27.15625 L 124.265625 27.15625 L 124.265625 37.605469 Z M 122.96875 37.601562 "/>
<path style=" stroke:none;fill-rule:nonzero;fill:rgb(10.980392%,10.980392%,10.980392%);fill-opacity:1;" d="M 127.0625 27.15625 L 128.359375 27.15625 L 128.359375 31.027344 L 130.902344 31.027344 C 132.855469 31.027344 134.242188 32.378906 134.242188 34.324219 C 134.242188 36.265625 132.867188 37.601562 130.914062 37.601562 L 127.0625 37.601562 Z M 130.578125 36.425781 C 132.066406 36.425781 132.910156 35.667969 132.910156 34.324219 C 132.910156 32.976562 132.0625 32.199219 130.578125 32.199219 L 128.359375 32.199219 L 128.359375 36.425781 Z M 130.578125 36.425781 "/>
<path style=" stroke:none;fill-rule:nonzero;fill:rgb(10.980392%,10.980392%,10.980392%);fill-opacity:1;" d="M 143.507812 37.601562 L 143.507812 32.847656 L 137.800781 32.847656 L 137.800781 37.601562 L 136.503906 37.601562 L 136.503906 27.15625 L 137.800781 27.15625 L 137.800781 31.671875 L 143.507812 31.671875 L 143.507812 27.15625 L 144.800781 27.15625 L 144.800781 37.601562 Z M 143.507812 37.601562 "/>
<path style=" stroke:none;fill-rule:nonzero;fill:rgb(10.980392%,10.980392%,10.980392%);fill-opacity:1;" d="M 154.617188 29.289062 L 154.507812 29.289062 L 148.886719 37.601562 L 147.605469 37.601562 L 147.605469 27.15625 L 148.886719 27.15625 L 148.886719 35.492188 L 149 35.492188 L 154.617188 27.15625 L 155.902344 27.15625 L 155.902344 37.601562 L 154.617188 37.601562 Z M 154.617188 29.289062 "/>
<path style=" stroke:none;fill-rule:nonzero;fill:rgb(10.980392%,10.980392%,10.980392%);fill-opacity:1;" d="M 161.558594 32.347656 L 158.054688 27.15625 L 159.617188 27.15625 L 162.351562 31.3125 L 162.46875 31.3125 L 165.25 27.15625 L 166.726562 27.15625 L 163.125 32.414062 L 166.644531 37.613281 L 165.09375 37.613281 L 162.367188 33.492188 L 162.25 33.492188 L 159.480469 37.613281 L 158.011719 37.613281 Z M 161.558594 32.347656 "/>
<path style=" stroke:none;fill-rule:nonzero;fill:rgb(10.980392%,10.980392%,10.980392%);fill-opacity:1;" d="M 66.980469 52.421875 L 66.980469 43.152344 L 63.625 43.152344 L 63.625 41.992188 L 71.609375 41.992188 L 71.609375 43.152344 L 68.269531 43.152344 L 68.269531 52.421875 Z M 66.980469 52.421875 "/>
<path style=" stroke:none;fill-rule:nonzero;fill:rgb(10.980392%,10.980392%,10.980392%);fill-opacity:1;" d="M 80.203125 52.421875 L 73.765625 52.421875 L 73.765625 41.980469 L 80.203125 41.980469 L 80.203125 43.140625 L 75.0625 43.140625 L 75.0625 46.492188 L 79.9375 46.492188 L 79.9375 47.65625 L 75.0625 47.65625 L 75.0625 51.25 L 80.203125 51.25 Z M 80.203125 52.421875 "/>
<path style=" stroke:none;fill-rule:nonzero;fill:rgb(10.980392%,10.980392%,10.980392%);fill-opacity:1;" d="M 85.578125 47.171875 L 82.0625 41.980469 L 83.625 41.980469 L 86.359375 46.136719 L 86.472656 46.136719 L 89.25 41.980469 L 90.726562 41.980469 L 87.132812 47.238281 L 90.652344 52.433594 L 89.097656 52.433594 L 86.375 48.316406 L 86.261719 48.316406 L 83.488281 52.433594 L 82.019531 52.433594 Z M 85.578125 47.171875 "/>
<path style=" stroke:none;fill-rule:nonzero;fill:rgb(10.980392%,10.980392%,10.980392%);fill-opacity:1;" d="M 99.851562 52.421875 L 99.851562 47.667969 L 94.148438 47.667969 L 94.148438 52.421875 L 92.851562 52.421875 L 92.851562 41.980469 L 94.148438 41.980469 L 94.148438 46.496094 L 99.851562 46.496094 L 99.851562 41.980469 L 101.148438 41.980469 L 101.148438 52.421875 Z M 99.851562 52.421875 "/>
<path style=" stroke:none;fill-rule:nonzero;fill:rgb(10.980392%,10.980392%,10.980392%);fill-opacity:1;" d="M 113.066406 47.199219 C 113.066406 50.535156 111.28125 52.667969 108.316406 52.667969 C 105.347656 52.667969 103.539062 50.542969 103.539062 47.199219 C 103.539062 43.855469 105.375 41.734375 108.316406 41.734375 C 111.253906 41.734375 113.066406 43.847656 113.066406 47.199219 Z M 104.871094 47.199219 C 104.871094 49.789062 106.152344 51.46875 108.316406 51.46875 C 110.476562 51.46875 111.738281 49.789062 111.738281 47.199219 C 111.738281 44.609375 110.4375 42.933594 108.316406 42.933594 C 106.191406 42.933594 104.871094 44.585938 104.871094 47.199219 Z M 104.871094 47.199219 "/>
<path style=" stroke:none;fill-rule:nonzero;fill:rgb(10.980392%,10.980392%,10.980392%);fill-opacity:1;" d="M 121.644531 52.421875 L 121.644531 43.152344 L 117.835938 43.152344 L 117.503906 48.515625 C 117.34375 51.027344 116.691406 52.488281 114.855469 52.488281 C 114.683594 52.492188 114.515625 52.46875 114.351562 52.417969 L 114.351562 51.253906 C 114.480469 51.28125 114.609375 51.296875 114.738281 51.296875 C 115.914062 51.296875 116.183594 50.101562 116.28125 48.464844 L 116.652344 41.980469 L 122.925781 41.980469 L 122.925781 52.425781 Z M 121.644531 52.421875 "/>
<path style=" stroke:none;fill-rule:nonzero;fill:rgb(10.980392%,10.980392%,10.980392%);fill-opacity:1;" d="M 134.847656 47.199219 C 134.847656 50.535156 133.0625 52.667969 130.09375 52.667969 C 127.125 52.667969 125.320312 50.542969 125.320312 47.199219 C 125.320312 43.855469 127.15625 41.734375 130.09375 41.734375 C 133.03125 41.734375 134.847656 43.847656 134.847656 47.199219 Z M 126.652344 47.199219 C 126.652344 49.789062 127.933594 51.46875 130.09375 51.46875 C 132.253906 51.46875 133.503906 49.789062 133.503906 47.199219 C 133.503906 44.609375 132.207031 42.933594 130.082031 42.933594 C 127.957031 42.933594 126.652344 44.585938 126.652344 47.199219 Z M 126.652344 47.199219 "/>
<path style=" stroke:none;fill-rule:nonzero;fill:rgb(10.980392%,10.980392%,10.980392%);fill-opacity:1;" d="M 137.238281 52.421875 L 137.238281 41.980469 L 143.40625 41.980469 L 143.40625 43.171875 L 138.542969 43.171875 L 138.542969 52.425781 Z M 137.238281 52.421875 "/>
<path style=" stroke:none;fill-rule:nonzero;fill:rgb(10.980392%,10.980392%,10.980392%);fill-opacity:1;" d="M 145.59375 52.421875 L 145.59375 41.980469 L 146.890625 41.980469 L 146.890625 52.421875 Z M 145.59375 52.421875 "/>
<path style=" stroke:none;fill-rule:nonzero;fill:rgb(10.980392%,10.980392%,10.980392%);fill-opacity:1;" d="M 156.703125 44.113281 L 156.585938 44.113281 L 150.964844 52.421875 L 149.683594 52.421875 L 149.683594 41.980469 L 150.964844 41.980469 L 150.964844 50.316406 L 151.082031 50.316406 L 156.703125 41.980469 L 157.984375 41.980469 L 157.984375 52.421875 L 156.703125 52.421875 Z M 152.59375 38.859375 C 152.628906 39.582031 153.21875 40.152344 153.941406 40.152344 C 154.660156 40.152344 155.253906 39.582031 155.285156 38.859375 L 156.410156 38.859375 C 156.410156 40.207031 155.417969 41.015625 153.933594 41.015625 C 152.449219 41.015625 151.472656 40.207031 151.472656 38.859375 Z M 152.59375 38.859375 "/>
</g>
</svg>
