<svg version="1.1" xmlns="http://www.w3.org/2000/svg" xmlns:xlink="http://www.w3.org/1999/xlink" width="512px" height="512px" viewBox="0,0,256,256"><g fill="#f35c27" fill-rule="nonzero" stroke="none" stroke-width="1" stroke-linecap="butt" stroke-linejoin="miter" stroke-miterlimit="10" stroke-dasharray="" stroke-dashoffset="0" font-family="none" font-weight="none" font-size="none" text-anchor="none" style="mix-blend-mode: normal"><g transform="translate(-0.00564,0.00564) scale(0.5,0.5)"><path d="M164.9,24.6c-7.7,-18.6 -28,-28.5 -47.4,-23.2l-88,24c-17.4,4.8 -29.5,20.6 -29.5,38.6c0,247.4 200.6,448 448,448c18,0 33.8,-12.1 38.6,-29.5l24,-88c5.3,-19.4 -4.6,-39.7 -23.2,-47.4l-96,-40c-16.3,-6.8 -35.2,-2.1 -46.3,11.6l-40.4,49.3c-70.4,-33.3 -127.4,-90.3 -160.7,-160.7l49.3,-40.3c13.7,-11.2 18.4,-30 11.6,-46.3l-40,-96z"></path></g></g></svg>